<?xml version="1.0" encoding="iso-8859-1"?>
<!-- Generator: Adobe Illustrator 19.0.0, SVG Export Plug-In . SVG Version: 6.00 Build 0)  -->
<svg version="1.1" id="Capa_1" xmlns="http://www.w3.org/2000/svg" xmlns:xlink="http://www.w3.org/1999/xlink" x="0px" y="0px"
	 viewBox="0 0 512.001 512.001" style="enable-background:new 0 0 512.001 512.001;" xml:space="preserve">
<g>
	<g>
		<path d="M512.001,121.41c0-11.448-8.309-21.664-24.694-30.365c-13.204-7.011-31.81-13.249-55.299-18.54
			C384.755,61.862,322.248,56,256.001,56c-66.248,0-128.755,5.861-176.008,16.505c-23.489,5.291-42.095,11.529-55.299,18.54
			C8.309,99.747,0,109.962,0,121.411c0,4.761,1.459,9.306,4.316,13.62l120.03,219.515c-8.131,5.032-13.763,14.614-13.763,25.333
			v37.542c0,14.191,10.792,25.733,26.855,28.72c35.196,6.543,73.594,9.86,114.127,9.86c40.747,0,81.956-3.304,122.479-9.818
			c16.207-2.604,27.096-14.163,27.096-28.762v-37.542c0.002-10.732-5.621-20.325-13.739-25.357l119.71-218.634
			C510.358,131.321,512.001,126.488,512.001,121.41z M40.025,158.648c11.101,4.269,24.462,8.176,39.968,11.669
			c38.871,8.756,88.068,14.271,141.176,15.954l25.956,173.721c-34.587-0.442-68.645-3.172-101.455-8.137L40.025,158.648z
			 M370.872,426.436C331.395,432.783,291.254,436,251.566,436c-39.31,0-76.479-3.204-110.472-9.522
			c-1.755-0.327-10.511-2.297-10.511-9.058v-37.542c0-4.402,3.363-9.059,6.543-9.059c0.189,0,0.376,0.015,0.573,0.046
			c38.475,6.104,78.657,9.198,119.432,9.198c0.489,0,0.975-0.006,1.465-0.007c0.044,0.001,0.087,0.006,0.131,0.006
			c0.067,0,0.137-0.006,0.204-0.008c40.245-0.09,78.985-3.18,115.169-9.201c0.193-0.032,0.386-0.049,0.572-0.049
			c2.852,0,6.469,4.272,6.469,9.073v37.543h0.001C381.142,422.856,375.61,425.674,370.872,426.436z M366.038,351.892
			c-31.194,4.932-64.324,7.648-98.692,8.098l-4.962-33.206c9.782-0.081,19.616-0.339,29.326-0.79
			c5.517-0.256,9.781-4.936,9.525-10.453c-0.256-5.518-4.924-9.759-10.453-9.525c-10.393,0.483-20.908,0.741-31.383,0.789
			l-2.986-19.986c14.815-0.008,29.777-0.441,44.484-1.293c5.514-0.319,9.725-5.048,9.405-10.561
			c-0.32-5.514-5.037-9.689-10.562-9.405c-14.46,0.838-29.176,1.263-43.741,1.263c-0.86,0-1.717-0.007-2.576-0.009l-2.991-20.021
			c1.858,0.013,3.72,0.029,5.567,0.029c18.096,0,36.307-0.605,54.127-1.797c5.51-0.368,9.679-5.135,9.309-10.645
			c-0.368-5.51-5.117-9.692-10.646-9.31c-17.377,1.162-35.139,1.752-52.791,1.752c-2.841,0-5.7-0.016-8.559-0.046l-5.983-40.052
			c4.825,0.064,9.672,0.099,14.543,0.099c66.247,0,128.755-5.861,176.007-16.505c15.43-3.476,28.736-7.362,39.805-11.606
			L366.038,351.892z M427.613,150.806c-45.854,10.329-106.8,16.017-171.612,16.017c-64.814,0-125.76-5.688-171.613-16.017
			C31.567,138.908,20,125.552,20,121.411s11.567-17.497,64.388-29.394C130.241,81.688,191.188,76,256.001,76
			s125.759,5.688,171.612,16.017c52.82,11.897,64.388,25.252,64.388,29.394C492.001,125.553,480.434,138.908,427.613,150.806z"/>
	</g>
</g>
<g>
	<g>
		<path d="M352.393,230.986c-0.626-5.486-5.574-9.424-11.068-8.803l-0.561,0.063c-5.487,0.623-9.432,5.576-8.81,11.063
			c0.579,5.105,4.905,8.874,9.924,8.874c0.376,0,0.757-0.021,1.14-0.064l0.573-0.064
			C349.077,241.429,353.019,236.473,352.393,230.986z"/>
	</g>
</g>
<g>
</g>
<g>
</g>
<g>
</g>
<g>
</g>
<g>
</g>
<g>
</g>
<g>
</g>
<g>
</g>
<g>
</g>
<g>
</g>
<g>
</g>
<g>
</g>
<g>
</g>
<g>
</g>
<g>
</g>
</svg>
