<?xml version="1.0" encoding="iso-8859-1"?>
<!-- Generator: Adobe Illustrator 19.0.0, SVG Export Plug-In . SVG Version: 6.00 Build 0)  -->
<svg version="1.1" id="Capa_1" xmlns="http://www.w3.org/2000/svg" xmlns:xlink="http://www.w3.org/1999/xlink" x="0px" y="0px"
	 viewBox="0 0 512.003 512.003" style="enable-background:new 0 0 512.003 512.003;" xml:space="preserve">
<g>
	<g>
		<path d="M432.412,64.615c-47.245-12.002-109.896-18.613-176.411-18.613S126.835,52.612,79.59,64.615
			C26.778,78.032,0,96.16,0,118.5v58.043c0,0.022,0,0.043,0,0.065v48.021c0,22.338,26.778,40.467,79.59,53.885
			c44.872,11.399,103.644,17.931,166.422,18.559l-0.006,9.575c-36.13,4.526-64.829,33.225-69.357,69.354h-1.859
			c-5.522,0-10,4.477-10,10s4.478,10,10,10h1.859c4.939,39.406,38.629,70,79.353,70c40.761,0,74.476-30.649,79.367-70.108h1.845
			c5.523,0,10-4.477,10-10s-4.477-10-10-10h-1.872c-4.571-36.075-33.245-64.718-69.335-69.245l0.006-9.579
			c10.065-0.103,20.074-0.357,29.971-0.766c0.006,0,0.012,0.001,0.018,0.001c0.045,0,0.089-0.006,0.134-0.007
			c22.791-0.945,44.968-2.695,65.858-5.193c0.295-0.022,0.591-0.056,0.888-0.104c0.012-0.002,0.023-0.005,0.036-0.007
			c6.068-0.733,12.04-1.523,17.87-2.383c49.005-7.228,131.215-25.15,131.215-63.982v-106.13
			C512.002,96.16,485.224,78.032,432.412,64.615z M84.515,84c45.682-11.606,106.583-17.997,171.486-17.997
			S381.806,72.394,427.487,84c50.927,12.938,64.515,27.774,64.515,34.5c0,7.622-14.196,18.719-44.663,28.742
			c-48.021-18.282-117.442-28.736-191.338-28.736c-73.926,0-143.374,10.463-191.396,28.758C30.174,135.957,20,124.184,20,118.5
			C20,111.772,33.588,96.937,84.515,84z M206,275.826c-45.776-2.413-87.777-8.133-121.486-16.697
			C33.588,246.191,20,231.355,20,224.629v-32.017c18.782,8.722,39.739,16.285,62.536,22.545c0.886,0.243,1.776,0.359,2.653,0.359
			c4.392,0,8.418-2.915,9.637-7.355c1.463-5.326-1.669-10.828-6.995-12.291C62.596,188.941,39.815,180.382,20,170.4v-21.756
			c11.157,7.576,25.954,13.722,41.669,18.667c0.145,0.05,0.291,0.095,0.438,0.138c11.331,3.545,23.126,6.47,34.37,8.852
			c33.327,7.061,69.487,11.516,109.523,13.495V275.826z M256.006,396.001c-0.002,0-0.003-0.001-0.005-0.001
			s-0.003,0.001-0.005,0.001c-5.512-0.003-9.995-4.487-9.995-10c0-5.514,4.486-10,10-10c5.514,0,10,4.486,10,10
			C266.001,391.514,261.518,395.999,256.006,396.001z M315.133,375.894h-8.525c-5.523,0-10,4.477-10,10s4.477,10,10,10h8.564
			c-4.189,25.135-24.05,45.025-49.171,49.259v-30.871c11.639-4.128,20-15.244,20-28.28c0-16.542-13.458-30-30-30s-30,13.458-30,30
			c0,13.036,8.361,24.152,20,28.28v30.871c-25.084-4.228-44.923-24.066-49.15-49.15h8.544c5.522,0,10-4.477,10-10s-4.478-10-10-10
			h-8.544c4.775-28.336,29.469-49.995,59.14-50c0.002,0,0.004,0,0.005,0c0.002,0,0.004,0,0.006,0c0.002,0,0.004,0,0.007,0
			C285.644,326.004,310.313,347.61,315.133,375.894z M286.001,276.651c-6.621,0.208-13.285,0.348-19.978,0.418l0.017-29.475
			c0.003-5.523-4.472-10.003-9.994-10.006c-0.002,0-0.004,0-0.006,0c-5.52,0-9.997,4.474-10,9.994l-0.017,29.491
			c-6.728-0.068-13.408-0.202-20.022-0.407v-86.094c9.774,0.275,19.756,0.424,30,0.424c10.188,0,20.18-0.155,30-0.441V276.651z
			 M256,170.996c-59.266,0-110.09-4.664-155.379-14.259c-0.056-0.012-0.109-0.024-0.164-0.036
			c43.039-11.689,97.748-18.197,155.543-18.197c57.789,0,112.493,6.506,155.53,18.193c-17.067,3.627-35.26,6.567-54.491,8.818
			c-0.795-0.003-1.568,0.086-2.313,0.26C324.285,169.237,291.285,170.996,256,170.996z M359.913,271.212
			c-17.19,2.063-35.291,3.605-53.911,4.595v-86.044c17.933-0.902,35.188-2.303,51.72-4.201
			c23.994,1.393,33.764,20.159,34.877,37.466C393.946,243.98,383.145,267.194,359.913,271.212z M492.002,224.629L492.002,224.629
			c0,9.872-24.493,27.675-90.05,40.148c7.825-12.385,11.595-27.646,10.605-43.033c-0.974-15.144-6.957-30.537-18.286-41.389
			c7.597-1.308,15.031-2.72,22.252-4.266c10.903-2.335,22.331-5.186,33.338-8.629c0.104-0.03,0.205-0.065,0.307-0.098
			c15.754-4.948,30.626-11.113,41.834-18.724V224.629z"/>
	</g>
</g>
<g>
	<g>
		<path d="M115.853,202.631l-0.241-0.051c-5.409-1.114-10.666,2.374-11.78,7.784c-1.114,5.409,2.397,10.702,7.806,11.817
			c0.711,0.153,1.419,0.227,2.117,0.227c4.608,0,8.754-3.205,9.766-7.893C124.684,209.116,121.251,203.795,115.853,202.631z"/>
	</g>
</g>
<g>
</g>
<g>
</g>
<g>
</g>
<g>
</g>
<g>
</g>
<g>
</g>
<g>
</g>
<g>
</g>
<g>
</g>
<g>
</g>
<g>
</g>
<g>
</g>
<g>
</g>
<g>
</g>
<g>
</g>
</svg>
