<?xml version="1.0" encoding="iso-8859-1"?>
<!-- Generator: Adobe Illustrator 19.0.0, SVG Export Plug-In . SVG Version: 6.00 Build 0)  -->
<svg version="1.1" id="Capa_1" xmlns="http://www.w3.org/2000/svg" xmlns:xlink="http://www.w3.org/1999/xlink" x="0px" y="0px"
	 viewBox="0 0 512.001 512.001" style="enable-background:new 0 0 512.001 512.001;" xml:space="preserve">
<g>
	<g>
		<path d="M495.186,44.541C481.247,17.483,450.985,0,418.091,0c-20.622,0-40.094,6.716-56.309,19.422
			c-17.961,14.073-31.228,35.308-38.366,61.409l-19.843,72.549c-16.263-5.586-35.62-8.604-55.751-8.604
			c-18.415,0-35.988,2.619-50.732,7.475l-21.079-85.715c-11.996-48.78-49.675-66.16-80.937-66.16
			c-31.772,0-61.824,16.826-76.559,42.867c-16.181,28.598-12.94,64.578,9.126,101.312l59.113,98.406
			c-13.948,26.297-21.296,55.834-21.296,85.804c0,101.037,82.199,183.236,183.236,183.236S431.93,429.802,431.93,328.765
			c0-29.776-7.254-59.128-21.029-85.298l67.564-94.769C514.014,98.836,504.2,62.038,495.186,44.541z M390.971,236.971
			c-2.267,3.18-2.476,7.388-0.534,10.776c14.062,24.541,21.494,52.557,21.494,81.018c0,90.009-73.228,163.236-163.236,163.236
			c-90.009,0-163.236-73.227-163.236-163.236c0-28.473,7.438-56.497,21.509-81.045c1.802-3.144,1.763-7.016-0.104-10.122
			L44.786,134.256c-18.193-30.287-21.342-59.111-8.863-81.163c11.246-19.875,34.465-32.717,59.152-32.717
			c30.677,0,53.673,19.041,61.516,50.936l23.799,96.774c0.713,2.897,2.682,5.325,5.369,6.62c2.688,1.296,5.813,1.322,8.522,0.076
			c14.02-6.453,33.034-10.007,53.542-10.007c21.696,0,42.934,4.049,58.265,11.108c2.667,1.229,5.742,1.222,8.407-0.02
			c2.663-1.241,4.645-3.591,5.421-6.426l22.792-83.331C354.03,44.713,382.211,20,418.091,20c25.485,0,48.769,13.228,59.315,33.7
			c11.963,23.222,6.556,52.836-15.227,83.389L390.971,236.971z"/>
	</g>
</g>
<g>
	<g>
		<path d="M159.715,185.097L141.283,97.24c-4.337-20.668-17.958-33.008-36.438-33.008c-16.254,0-33.194,10.175-40.281,24.193
			c-5.514,10.905-4.509,22.819,2.756,32.687l60.407,82.049c1.958,2.66,4.987,4.072,8.061,4.072c2.009,0,4.037-0.605,5.796-1.857
			l14.148-10.082C158.966,192.987,160.53,188.984,159.715,185.097z M137.995,183.374l-54.569-74.12
			c-2.824-3.836-3.146-7.587-1.013-11.806c3.746-7.411,13.601-13.217,22.433-13.217c8.808,0,14.48,5.759,16.863,17.114
			l17.089,81.456L137.995,183.374z"/>
	</g>
</g>
<g>
	<g>
		<path d="M442.058,88.864c-6.331-13.545-20.234-22.644-34.596-22.644c-16.021,0-29.44,10.781-36.816,29.58l-32.416,82.609
			c-1.511,3.849-0.496,8.23,2.553,11.024l17.521,16.058c1.85,1.695,4.262,2.628,6.756,2.628c0.22,0,0.441-0.008,0.663-0.022
			c2.726-0.181,5.258-1.469,7.01-3.564l63.369-75.81C445.976,116.911,448.203,102.009,442.058,88.864z M420.757,115.896
			l-56.657,67.78l-4.746-4.35l29.909-76.222c4.273-10.889,10.736-16.886,18.198-16.886c6.643,0,13.42,4.57,16.478,11.113
			C425.959,101.649,427.045,108.375,420.757,115.896z"/>
	</g>
</g>
<g>
	<g>
		<path d="M303.212,389.067c-0.004,0-0.008,0-0.012,0c-5.522,0.006-9.994,4.488-9.988,10.012c0.008,7.118-2.503,12.116-7.462,14.854
			c-5.994,3.311-14.888,2.85-21.145-1.099c-4.571-2.885-6.893-6.926-6.922-12.023c0.02-0.574,0.046-1.146,0.045-1.732
			c0-0.005,0.001-0.009,0.001-0.009v-7.453c17.609-3.007,30.301-13.811,30.301-27.044c0-15.635-17.714-27.883-40.326-27.883
			s-40.325,12.248-40.325,27.883c0,13.246,12.716,24.057,30.351,27.053v7.441v0.006c0,0,0,0.004,0,0.006
			c0,0.049-0.003,0.096-0.003,0.145c-0.018,0.447-0.035,0.895-0.037,1.339c-0.325,6.331-2.815,10.827-7.422,13.371
			c-5.995,3.311-14.888,2.85-21.145-1.099c-4.91-3.099-7.229-7.53-6.894-13.174c0.328-5.513-3.875-10.248-9.389-10.576
			c-5.493-0.31-10.248,3.875-10.576,9.389c-0.768,12.901,5.132,24.301,16.187,31.275c6.721,4.24,14.676,6.388,22.524,6.388
			c6.674,0,13.271-1.555,18.96-4.695c3.106-1.716,5.821-3.82,8.149-6.248c1.749,1.671,3.698,3.199,5.849,4.556
			c6.721,4.24,14.676,6.388,22.525,6.388c6.674,0,13.271-1.555,18.96-4.695c11.491-6.346,17.811-17.847,17.794-32.386
			C313.206,393.537,308.729,389.067,303.212,389.067z M247.704,372.456c-13.117,0-20.325-5.92-20.325-7.882
			c0-1.962,7.208-7.883,20.325-7.883c13.117,0,20.326,5.921,20.326,7.883C268.03,366.536,260.821,372.456,247.704,372.456z"/>
	</g>
</g>
<g>
	<g>
		<path d="M248.695,180.529c-22.134,0-44.373,5.076-64.314,14.679c-4.976,2.396-7.067,8.373-4.671,13.349
			c1.723,3.576,5.297,5.662,9.017,5.662c1.455,0,2.934-0.318,4.332-0.992c17.25-8.308,36.488-12.698,55.636-12.698
			c5.522,0,10-4.478,10-10C258.695,185.006,254.217,180.529,248.695,180.529z"/>
	</g>
</g>
<g>
	<g>
		<path d="M170.544,214.281c-3.442-4.318-9.732-5.03-14.053-1.586l-0.201,0.16c-4.318,3.442-5.028,9.733-1.586,14.053
			c1.975,2.478,4.886,3.767,7.826,3.767c2.185,0,4.385-0.713,6.227-2.181l0.201-0.16
			C173.276,224.892,173.986,218.601,170.544,214.281z"/>
	</g>
</g>
<g>
	<g>
		<path d="M349.484,297.609c-7.758-13.888-22.272-22.515-37.878-22.515c-15.605,0-30.119,8.627-37.878,22.515
			c-2.694,4.821-0.97,10.913,3.852,13.606c4.819,2.694,10.913,0.971,13.606-3.853c4.229-7.567,12.053-12.269,20.419-12.269
			c8.367,0,16.191,4.701,20.42,12.269c1.831,3.278,5.232,5.125,8.738,5.125c1.651,0,3.325-0.41,4.868-1.272
			C350.452,308.522,352.178,302.43,349.484,297.609z"/>
	</g>
</g>
<g>
	<g>
		<path d="M221.679,297.609c-7.759-13.888-22.273-22.515-37.879-22.515c-15.606,0-30.119,8.627-37.878,22.515
			c-2.694,4.821-0.97,10.913,3.852,13.606c4.818,2.694,10.913,0.971,13.607-3.853c4.229-7.567,12.053-12.269,20.419-12.269
			c8.369,0.001,16.193,4.702,20.421,12.269c1.831,3.278,5.232,5.125,8.738,5.125c1.651,0,3.325-0.41,4.868-1.272
			C222.648,308.522,224.374,302.43,221.679,297.609z"/>
	</g>
</g>
<g>
</g>
<g>
</g>
<g>
</g>
<g>
</g>
<g>
</g>
<g>
</g>
<g>
</g>
<g>
</g>
<g>
</g>
<g>
</g>
<g>
</g>
<g>
</g>
<g>
</g>
<g>
</g>
<g>
</g>
</svg>
