<?xml version="1.0" encoding="iso-8859-1"?>
<!-- Generator: Adobe Illustrator 19.0.0, SVG Export Plug-In . SVG Version: 6.00 Build 0)  -->
<svg version="1.1" id="Capa_1" xmlns="http://www.w3.org/2000/svg" xmlns:xlink="http://www.w3.org/1999/xlink" x="0px" y="0px"
	 viewBox="0 0 512 512" style="enable-background:new 0 0 512 512;" xml:space="preserve">
<g>
	<g>
		<path d="M482,46.001H30c-16.542,0-30,13.458-30,30v280C0,372.542,13.458,386,30,386h168.192l-16.895,67.573
			c-0.747,2.987-0.076,6.152,1.819,8.58c1.895,2.427,4.803,3.846,7.882,3.846H321c0.008,0.001,0.016,0.001,0.02,0
			c5.523,0,10-4.478,10-10c0-1.069-0.168-2.1-0.479-3.065L313.808,386H482c16.542,0,30-13.458,30-29.999v-280
			C512,59.459,498.542,46.001,482,46.001z M203.807,445.999L218.808,386h74.385l14.999,59.999H203.807z M492,356.001
			c0,5.513-4.486,9.999-10,9.999H301h-90H30c-5.514,0-10-4.485-10-9.999v-10h472V356.001z M492,326.002H20v-76.531h113.347
			l14.081,15.473c2.118,2.326,5.205,3.525,8.339,3.225c3.132-0.297,5.942-2.05,7.585-4.733l38.599-63.036l34.773,43.216
			c2.127,2.643,5.448,4.031,8.823,3.677c3.374-0.35,6.341-2.387,7.88-5.411l49.894-98.038l63.334,141.564
			c1.548,3.46,4.92,5.748,8.707,5.907c0.142,0.006,0.282,0.009,0.423,0.009c3.627,0,6.985-1.969,8.75-5.163l20.275-36.688H492
			V326.002z M492,229.472h-93.089c-3.64,0-6.992,1.977-8.752,5.163l-13.434,24.308L313.03,116.57
			c-1.573-3.517-5.026-5.816-8.878-5.913c-3.842-0.101-7.415,2.028-9.162,5.462l-52.375,102.913l-33.985-42.235
			c-2.04-2.534-5.187-3.907-8.431-3.71c-3.247,0.208-6.189,1.983-7.888,4.758l-39.058,63.785l-8.089-8.889
			c-1.895-2.082-4.581-3.27-7.396-3.27H20V76.001c0-5.514,4.486-10,10-10h452c5.514,0,10,4.486,10,10V229.472z"/>
	</g>
</g>
<g>
	<g>
		<path d="M141,81.001h-0.324c-5.523,0-10,4.478-10,10c0,5.522,4.477,10,10,10H141c5.523,0,10-4.478,10-10
			C151,85.479,146.523,81.001,141,81.001z"/>
	</g>
</g>
<g>
	<g>
		<path d="M110.952,81.001H45c-5.523,0-10,4.478-10,10c0,5.522,4.477,10,10,10h65.952c5.523,0,10-4.478,10-10
			C120.952,85.479,116.475,81.001,110.952,81.001z"/>
	</g>
</g>
<g>
</g>
<g>
</g>
<g>
</g>
<g>
</g>
<g>
</g>
<g>
</g>
<g>
</g>
<g>
</g>
<g>
</g>
<g>
</g>
<g>
</g>
<g>
</g>
<g>
</g>
<g>
</g>
<g>
</g>
</svg>
