<?xml version="1.0" encoding="iso-8859-1"?>
<!-- Generator: Adobe Illustrator 19.0.0, SVG Export Plug-In . SVG Version: 6.00 Build 0)  -->
<svg version="1.1" id="Capa_1" xmlns="http://www.w3.org/2000/svg" xmlns:xlink="http://www.w3.org/1999/xlink" x="0px" y="0px"
	 viewBox="0 0 511.998 511.998" style="enable-background:new 0 0 511.998 511.998;" xml:space="preserve">
<g>
	<g>
		<path d="M403.098,0H108.9c-40.197,0-72.9,32.703-72.9,72.9v366.198c0,40.197,32.703,72.9,72.9,72.9h294.199
			c40.197,0,72.9-32.703,72.9-72.9V72.9C475.999,32.703,443.296,0,403.098,0z M403.1,491.999H108.9c-29.169,0-52.9-23.731-52.9-52.9
			V72.9c0-29.17,23.731-52.9,52.9-52.9h294.199c29.169,0,52.9,23.73,52.9,52.9v366.199h0.001
			C455.999,468.269,432.269,491.999,403.1,491.999z"/>
	</g>
</g>
<g>
	<g>
		<path d="M389.783,81.388c-42.618-17.42-86.713-26.253-131.061-26.253c-44.26,0-90.099,8.798-136.243,26.149
			c-3.899,1.467-6.48,5.195-6.48,9.36v108.25c0,5.522,4.477,10,10,10h260c5.523,0,10-4.478,10-10V90.645
			C395.999,86.583,393.543,82.925,389.783,81.388z M218.925,188.894c4.411-16.341,19.357-28.404,37.075-28.404
			c17.717,0,32.663,12.063,37.075,28.404H218.925z M375.999,188.895h-62.47c-4.759-27.454-28.737-48.404-57.53-48.404
			c-12.498,0-24.082,3.959-33.591,10.671l-33.68-33.68c-3.905-3.904-10.236-3.904-14.142,0c-3.905,3.905-3.905,10.237,0,14.143
			l33.679,33.679c-4.88,6.915-8.294,14.927-9.797,23.592h-62.469v-91.27c41.682-14.928,82.937-22.491,122.723-22.491
			c39.592,0,79.013,7.497,117.277,22.294V188.895z"/>
	</g>
</g>
<g>
	<g>
		<path d="M255.999,324.842c-29.403,0-53.324,24-53.324,53.501c0,29.501,23.921,53.501,53.324,53.501s53.324-24,53.324-53.501
			C309.324,348.842,285.402,324.842,255.999,324.842z M255.999,411.844c-18.375,0-33.324-15.028-33.324-33.501
			c0-18.473,14.949-33.501,33.324-33.501s33.324,15.028,33.324,33.501C289.324,396.815,274.374,411.844,255.999,411.844z"/>
	</g>
</g>
<g>
	<g>
		<path d="M319.952,269.677c-17.528,0-31.788,15.079-31.788,33.613s14.26,33.612,31.788,33.612
			c17.528,0,31.788-15.078,31.788-33.612S337.48,269.677,319.952,269.677z M319.952,316.902c-6.5,0-11.788-6.107-11.788-13.612
			c0-7.507,5.288-13.613,11.788-13.613s11.788,6.107,11.788,13.613S326.452,316.902,319.952,316.902z"/>
	</g>
</g>
<g>
	<g>
		<path d="M256.704,240.161c-17.527,0-31.787,15.078-31.787,33.612s14.26,33.613,31.787,33.613
			c17.527,0.001,31.788-15.078,31.788-33.613C288.493,255.239,274.233,240.161,256.704,240.161z M256.704,287.386
			c-6.5,0.001-11.787-6.106-11.787-13.613c0-7.506,5.288-13.612,11.787-13.612c6.5,0,11.788,6.106,11.788,13.612
			C268.492,281.28,263.204,287.386,256.704,287.386z"/>
	</g>
</g>
<g>
	<g>
		<path d="M192.046,269.677c-17.528,0-31.788,15.079-31.788,33.613s14.26,33.612,31.788,33.612
			c17.527,0,31.788-15.078,31.788-33.612S209.574,269.677,192.046,269.677z M192.046,316.902c-6.5,0-11.788-6.107-11.788-13.612
			c0-7.507,5.288-13.613,11.788-13.613s11.788,6.107,11.788,13.613C203.835,310.796,198.546,316.902,192.046,316.902z"/>
	</g>
</g>
<g>
	<g>
		<path d="M174.853,456.999H108.9c-5.523,0-10,4.477-10,10c0,5.522,4.477,10,10,10h65.953c5.523,0,10-4.478,10-10
			C184.853,461.477,180.376,456.999,174.853,456.999z"/>
	</g>
</g>
<g>
	<g>
		<path d="M204.9,456.999h-0.324c-5.523,0-10,4.477-10,10c0,5.522,4.477,10,10,10h0.324c5.523,0,10-4.478,10-10
			C214.9,461.477,210.423,456.999,204.9,456.999z"/>
	</g>
</g>
<g>
</g>
<g>
</g>
<g>
</g>
<g>
</g>
<g>
</g>
<g>
</g>
<g>
</g>
<g>
</g>
<g>
</g>
<g>
</g>
<g>
</g>
<g>
</g>
<g>
</g>
<g>
</g>
<g>
</g>
</svg>
