<?xml version="1.0" encoding="iso-8859-1"?>
<!-- Generator: Adobe Illustrator 19.0.0, SVG Export Plug-In . SVG Version: 6.00 Build 0)  -->
<svg version="1.1" id="Capa_1" xmlns="http://www.w3.org/2000/svg" xmlns:xlink="http://www.w3.org/1999/xlink" x="0px" y="0px"
	 viewBox="0 0 511.999 511.999" style="enable-background:new 0 0 511.999 511.999;" xml:space="preserve">
<g>
	<g>
		<path d="M468.353,315.052c-0.102-0.108-0.272-0.278-0.38-0.38c-3.99-3.817-10.318-3.678-14.139,0.314
			c-3.776,3.948-3.68,10.187,0.189,14.016c1.95,1.971,4.525,2.962,7.104,2.962c2.485,0,4.974-0.921,6.911-2.773
			C472.029,325.374,472.17,319.044,468.353,315.052z"/>
	</g>
</g>
<g>
	<g>
		<path d="M58.163,183.188c-0.101-0.108-0.271-0.278-0.378-0.38c-3.99-3.817-10.318-3.678-14.139,0.314
			c-3.776,3.948-3.68,10.187,0.188,14.016c1.95,1.971,4.525,2.962,7.104,2.962c2.485,0,4.974-0.921,6.911-2.773
			C61.84,193.51,61.981,187.18,58.163,183.188z"/>
	</g>
</g>
<g>
	<g>
		<path d="M501.331,392.591c-4.108-13.802-1.333-30.374,2.507-53.31c3.636-21.716,8.161-48.742,8.161-83.281
			s-4.525-61.566-8.161-83.282c-3.84-22.935-6.614-39.508-2.507-53.309c0.803-2.696,1.677-5.395,2.603-8.25
			c5.575-17.209,11.896-36.713-0.538-52.535c-6.582-8.377-15.064-12.625-25.206-12.625c-10.036,0-20.3,4.238-30.226,8.337
			c-3.934,1.624-8.002,3.304-11.966,4.686c-12.719,4.434-28.189,6.499-48.686,6.499c-18.268,0-38.16-1.641-59.221-3.377
			c-23.346-1.925-47.485-3.916-72.091-3.916c-24.608,0-48.748,1.991-72.093,3.916c-21.059,1.736-40.951,3.377-59.22,3.377
			c-20.497,0-35.968-2.066-48.687-6.499c-3.965-1.382-8.032-3.062-11.966-4.686c-9.926-4.099-20.19-8.337-30.226-8.337
			c-10.144,0-18.625,4.248-25.208,12.625c-12.43,15.821-6.111,35.325-0.535,52.533c0.925,2.856,1.8,5.555,2.603,8.251
			c4.108,13.802,1.333,30.374-2.507,53.309C4.525,194.434,0,221.461,0,256s4.525,61.566,8.161,83.281
			c3.84,22.935,6.615,39.508,2.507,53.31c-0.803,2.697-1.678,5.396-2.604,8.253c-5.575,17.207-11.895,36.71,0.538,52.531
			C15.186,461.753,23.667,466,33.81,466c10.036-0.001,20.3-4.239,30.227-8.337c3.934-1.624,8.001-3.304,11.965-4.686
			c12.719-4.434,28.189-6.499,48.687-6.499c18.268,0,38.16,1.641,59.221,3.377c23.346,1.925,47.486,3.916,72.092,3.916
			c24.607,0,48.747-1.991,72.092-3.916c21.06-1.736,40.951-3.377,59.22-3.377c20.497,0,35.968,2.065,48.686,6.499
			c3.965,1.383,8.032,3.062,11.967,4.687c9.925,4.098,20.188,8.336,30.225,8.336c10.142,0,18.624-4.248,25.207-12.625
			c12.432-15.821,6.112-35.325,0.537-52.533C503.009,397.985,502.134,395.287,501.331,392.591z M482.163,398.296
			c0.871,2.927,1.823,5.867,2.745,8.711c5.2,16.05,8.202,27.089,2.763,34.011c-3.441,4.379-6.591,4.982-9.481,4.982
			c-6.069,0-14.096-3.313-22.592-6.822c-4.189-1.73-8.521-3.519-13.016-5.085c-14.9-5.194-32.464-7.614-55.271-7.614
			c-19.092,0-39.382,1.674-60.863,3.445c-22.941,1.892-46.664,3.848-70.448,3.848c-23.782,0-47.506-1.956-70.448-3.848
			c-21.482-1.772-41.773-3.445-60.864-3.445c-22.808,0-40.37,2.42-55.271,7.614c-4.494,1.566-8.825,3.354-13.014,5.084
			c-8.498,3.509-16.525,6.822-22.595,6.823c-2.891,0-6.04-0.603-9.482-4.982c-5.438-6.922-2.437-17.96,2.764-34.009
			c0.921-2.845,1.874-5.785,2.745-8.713c5.43-18.241,2.174-37.691-1.949-62.317C24.373,314.993,20,288.876,20,256
			c0-32.877,4.373-58.994,7.887-79.979c4.123-24.626,7.379-44.076,1.949-62.318c-0.871-2.927-1.823-5.866-2.745-8.71
			c-5.2-16.051-8.202-27.089-2.764-34.011C27.768,66.603,30.918,66,33.81,66c6.069,0,14.096,3.314,22.593,6.822
			c4.188,1.729,8.52,3.519,13.015,5.085c14.9,5.194,32.463,7.614,55.271,7.614c19.092,0,39.382-1.674,60.863-3.445
			c22.941-1.892,46.664-3.848,70.449-3.848c23.782,0,47.505,1.956,70.447,3.848c21.482,1.771,41.773,3.445,60.864,3.445
			c22.807,0,40.37-2.42,55.271-7.614c4.494-1.566,8.825-3.355,13.015-5.085C464.095,69.314,472.121,66,478.191,66
			c2.891,0,6.04,0.604,9.481,4.982c5.44,6.923,2.438,17.962-2.764,34.013c-0.921,2.843-1.873,5.782-2.744,8.709
			c-5.43,18.241-2.174,37.691,1.949,62.317C487.627,197.006,492,223.123,492,256c0,32.876-4.373,58.993-7.887,79.979
			C479.989,360.604,476.733,380.055,482.163,398.296z"/>
	</g>
</g>
<g>
	<g>
		<path d="M63.382,103.718c-1.576-5.293-7.147-8.309-12.438-6.732c-5.294,1.575-8.308,7.144-6.731,12.437
			c5.125,17.22,3.604,35.168,1.439,50.453c-0.774,5.469,3.031,10.529,8.499,11.304c0.476,0.067,0.948,0.1,1.415,0.1
			c4.901,0,9.182-3.606,9.889-8.599C67.922,145.257,69.605,124.625,63.382,103.718z"/>
	</g>
</g>
<g>
	<g>
		<path d="M256,244.571c-34.923,0-63.334,28.509-63.334,63.551c0,35.041,28.411,63.55,63.334,63.55
			c34.922,0,63.333-28.509,63.333-63.55C319.333,273.08,290.922,244.571,256,244.571z M256,351.672
			c-23.895,0-43.334-19.536-43.334-43.55s19.439-43.551,43.334-43.551c23.894,0,43.333,19.537,43.333,43.551
			C299.333,332.136,279.894,351.672,256,351.672z"/>
	</g>
</g>
<g>
	<g>
		<path d="M256,140.328c-20.304,0-36.821,17.525-36.821,39.067c0,21.542,16.517,39.068,36.821,39.068
			c20.303,0,36.82-17.526,36.82-39.068C292.82,157.853,276.302,140.328,256,140.328z M256,198.462
			c-9.275,0-16.821-8.554-16.821-19.068c0-10.513,7.546-19.067,16.821-19.067c9.274,0,16.82,8.554,16.82,19.067
			C272.82,189.909,265.274,198.462,256,198.462z"/>
	</g>
</g>
<g>
	<g>
		<path d="M334.728,176.661c-20.304,0-36.821,17.526-36.821,39.068s16.517,39.068,36.821,39.068
			c20.304,0,36.821-17.526,36.821-39.068S355.031,176.661,334.728,176.661z M334.728,234.798c-9.275,0-16.821-8.554-16.821-19.068
			c0-10.515,7.546-19.068,16.821-19.068c9.275,0,16.821,8.554,16.821,19.068C351.549,226.244,344.003,234.798,334.728,234.798z"/>
	</g>
</g>
<g>
	<g>
		<path d="M177.272,176.661c-20.303,0-36.821,17.526-36.821,39.068s16.518,39.068,36.821,39.068
			c20.303,0,36.821-17.526,36.821-39.068S197.575,176.661,177.272,176.661z M177.271,234.798c-9.275,0-16.821-8.554-16.821-19.068
			c0-10.515,7.546-19.068,16.821-19.068c9.275,0,16.821,8.554,16.821,19.068C194.093,226.244,186.547,234.798,177.271,234.798z"/>
	</g>
</g>
<g>
	<g>
		<path d="M467.785,402.575c-5.125-17.22-3.602-35.167-1.436-50.452c0.774-5.468-3.03-10.528-8.499-11.304
			c-5.458-0.771-10.528,3.03-11.304,8.499c-2.468,17.423-4.152,38.054,2.072,58.963c1.292,4.342,5.271,7.15,9.58,7.15
			c0.944,0,1.905-0.136,2.856-0.419C466.348,413.437,469.362,407.868,467.785,402.575z"/>
	</g>
</g>
<g>
</g>
<g>
</g>
<g>
</g>
<g>
</g>
<g>
</g>
<g>
</g>
<g>
</g>
<g>
</g>
<g>
</g>
<g>
</g>
<g>
</g>
<g>
</g>
<g>
</g>
<g>
</g>
<g>
</g>
</svg>
