<?xml version="1.0" encoding="iso-8859-1"?>
<!-- Generator: Adobe Illustrator 19.0.0, SVG Export Plug-In . SVG Version: 6.00 Build 0)  -->
<svg version="1.1" id="Capa_1" xmlns="http://www.w3.org/2000/svg" xmlns:xlink="http://www.w3.org/1999/xlink" x="0px" y="0px"
	 viewBox="0 0 512 512" style="enable-background:new 0 0 512 512;" xml:space="preserve">
<g>
	<g>
		<path d="M206.258,442.923c-8.974,0-16.293,7.319-16.293,16.294c0,8.974,7.319,16.293,16.293,16.293
			c8.975,0,16.294-7.319,16.294-16.293C222.552,450.242,215.232,442.923,206.258,442.923z"/>
	</g>
</g>
<g>
	<g>
		<path d="M166.953,88.477H101c-5.523,0-10,4.478-10,10c0,5.522,4.477,10,10,10h65.953c5.523,0,10-4.478,10-10
			C176.953,92.955,172.476,88.477,166.953,88.477z"/>
	</g>
</g>
<g>
	<g>
		<path d="M197,88.477h-0.324c-5.523,0-10,4.478-10,10c0,5.522,4.477,10,10,10H197c5.523,0,10-4.478,10-10
			C207,92.955,202.523,88.477,197,88.477z"/>
	</g>
</g>
<g>
	<g>
		<path d="M293.855,320.901c-9.105-9.988-25.048-17.239-37.912-17.239c-9.455,0-16.949,3.813-21.138,10.743
			c-0.236,0.064-0.71,0.153-1.507,0.153c-8.448,0-27.068-9.508-41.321-23.661c-7.869-7.814-11.014-15.119-11.67-18.128
			c11.67-15.946,4.691-28.474-4.943-42.005c-7.049-10.487-14.808-20.855-25.222-22.768c-0.917-0.168-1.876-0.253-2.852-0.253
			c-9.089,0-18.066,7.357-18.444,7.671c-6.903,5.726-12.77,14.774-15.695,24.208c-5.17,16.675-1.4,35.504,3.85,47.564
			c8.686,19.957,26.827,41.782,48.526,58.382c24.886,19.038,52.059,29.523,76.516,29.523c2.401,0,4.811-0.1,7.163-0.297l0.633-0.073
			c29.76-4.41,46.98-15.748,51.184-33.697l0.157-0.67l0.064-0.684C301.654,335.258,300.705,328.42,293.855,320.901z M247.228,354.89
			c-1.702,0.134-3.445,0.202-5.187,0.202c-45.645,0-92.911-44.199-106.704-75.889c-3.643-8.366-6.636-22.201-3.085-33.657
			c1.768-5.703,5.442-11.487,9.36-14.736c1.443-1.197,3.98-2.521,5.354-2.947c2.365,1.193,6.354,5.952,11.872,14.168l0.158,0.229
			c8.752,12.28,8.354,14.356,5.59,18.137c-2.516,2.453-4.043,5.847-4.353,9.754c-0.779,9.804,6.15,23.518,17.651,34.939
			c14.747,14.645,38.517,29.47,55.413,29.47c8.301,0,14.909-3.475,18.609-9.783c0.621-1.059,3.472-1.113,4.037-1.113
			c4.913,0,11.695,2.32,17.275,5.912c5.288,3.402,7.569,6.634,8.023,7.988C278.458,346.085,267.025,351.912,247.228,354.89z"/>
	</g>
</g>
<g>
	<g>
		<path d="M426,88.476h-70V42.897C356,19.244,336.756,0,313.102,0H98.898C75.244,0,56,19.244,56,42.897v426.204
			C56,492.756,75.244,512,98.898,512h214.203C336.756,512,356,492.756,356,469.102V228.476h70c16.542,0,30-13.458,30-30v-80
			C456,101.934,442.542,88.476,426,88.476z M76,42.897C76,30.271,86.272,20,98.898,20h214.203C325.728,20,336,30.271,336,42.897
			v10.577H76V42.897z M336,469.102C336,481.728,325.728,492,313.102,492H98.898C86.272,492,76,481.728,76,469.102v-42.665h260
			V469.102z M336,406.437H76V73.475h260v15.001h-70c-16.542,0-30,13.458-30,30v80c0,13.037,8.359,24.159,20,28.286v13.999
			c0,21.884,14.769,22.992,17.729,22.992c6.67,0,14.226-3.479,23.765-10.946l33.375-24.331H336V406.437z M436,198.476
			c0,5.514-4.486,10-10,10h-98.389c-2.117,0-4.18,0.672-5.891,1.92l-36.148,26.354c-0.096,0.069-0.191,0.142-0.285,0.215
			c-4.391,3.448-7.366,5.148-9.201,5.983c-0.052-0.598-0.086-1.32-0.086-2.186v-22.285c0-5.522-4.477-10-10-10
			c-5.514,0-10-4.486-10-10v-80c0-5.514,4.486-10,10-10h160c5.514,0,10,4.486,10,10V198.476z"/>
	</g>
</g>
<g>
	<g>
		<path d="M370.82,148.476H356v-14.82c0-5.522-4.477-10-10-10s-10,4.478-10,10v14.82h-14.82c-5.523,0-10,4.478-10,10
			c0,5.522,4.477,10,10,10H336v14.819c0,5.522,4.477,10,10,10s10-4.478,10-10v-14.819h14.82c5.523,0,10-4.478,10-10
			C380.82,152.953,376.343,148.476,370.82,148.476z"/>
	</g>
</g>
<g>
</g>
<g>
</g>
<g>
</g>
<g>
</g>
<g>
</g>
<g>
</g>
<g>
</g>
<g>
</g>
<g>
</g>
<g>
</g>
<g>
</g>
<g>
</g>
<g>
</g>
<g>
</g>
<g>
</g>
</svg>
