<?xml version="1.0" encoding="iso-8859-1"?>
<!-- Generator: Adobe Illustrator 19.0.0, SVG Export Plug-In . SVG Version: 6.00 Build 0)  -->
<svg version="1.1" id="Capa_1" xmlns="http://www.w3.org/2000/svg" xmlns:xlink="http://www.w3.org/1999/xlink" x="0px" y="0px"
	 viewBox="0 0 512.002 512.002" style="enable-background:new 0 0 512.002 512.002;" xml:space="preserve">
<g>
	<g>
		<path d="M256.001,305.31c-26.877,0-48.742,21.937-48.742,48.9c0,26.964,21.866,48.901,48.742,48.901
			c26.877,0,48.743-21.938,48.743-48.901C304.745,327.246,282.878,305.31,256.001,305.31z M256.001,383.111
			c-15.849,0-28.742-12.965-28.742-28.901c0-15.935,12.894-28.9,28.742-28.9c15.849,0,28.743,12.965,28.743,28.9
			C284.745,370.147,271.851,383.111,256.001,383.111z"/>
	</g>
</g>
<g>
	<g>
		<path d="M256.001,229.583c-16.257,0-29.484,13.959-29.484,31.116c0,17.157,13.227,31.115,29.484,31.115
			c16.258,0,29.484-13.958,29.484-31.115S272.258,229.583,256.001,229.583z M256.001,271.814c-5.23,0-9.484-4.986-9.484-11.115
			c0-6.13,4.254-11.116,9.484-11.116c5.23,0,9.484,4.986,9.484,11.116C265.485,266.828,261.231,271.814,256.001,271.814z"/>
	</g>
</g>
<g>
	<g>
		<path d="M314.204,256.123c-16.257,0-29.483,13.959-29.483,31.116c-0.001,17.158,13.225,31.115,29.483,31.115
			c16.257,0,29.483-13.958,29.483-31.115C343.687,270.082,330.461,256.123,314.204,256.123z M314.204,298.354
			c-5.229,0-9.483-4.986-9.483-11.115c-0.001-6.13,4.254-11.116,9.483-11.116s9.483,4.986,9.483,11.116
			C323.687,293.368,319.433,298.354,314.204,298.354z"/>
	</g>
</g>
<g>
	<g>
		<path d="M197.8,255.978c-16.257,0-29.483,13.959-29.483,31.116s13.226,31.116,29.483,31.116s29.483-13.959,29.483-31.116
			C227.283,269.937,214.057,255.978,197.8,255.978z M197.799,298.21c-5.229,0-9.483-4.986-9.483-11.116s4.254-11.116,9.483-11.116
			s9.483,4.986,9.483,11.116C207.283,293.224,203.028,298.21,197.799,298.21z"/>
	</g>
</g>
<g>
	<g>
		<path d="M379.692,166.892c-4.556-7.118-9.702-15.097-15.054-23.396C350.2,121.108,333.15,94.67,323.43,78.447
			c11.554-3.925,19.893-14.869,19.893-27.732v-21.43C343.325,13.138,330.187,0,314.039,0H197.964
			c-16.148,0-29.285,13.138-29.285,29.285v21.43c0,12.863,8.339,23.808,19.893,27.732c-9.715,16.217-26.755,42.64-41.186,65.016
			c-5.359,8.311-10.513,16.302-15.075,23.428c-18.812,29.39-19.442,37.041-19.079,64.717c0.05,3.816,0.107,8.143,0.107,13.014
			v230.381c0,20.401,16.598,36.999,37,36.999h211.324c20.402,0,37-16.598,37-36.999V244.621c0-4.871,0.057-9.197,0.107-13.015
			C399.134,203.932,398.503,196.28,379.692,166.892z M188.679,29.285c0-5.12,4.165-9.285,9.285-9.285h116.074
			c5.121,0,9.286,4.165,9.286,9.285v21.43c0,5.12-4.165,9.286-9.286,9.286H197.964c-5.12,0-9.285-4.166-9.285-9.286V29.285z
			 M210.781,80.001h90.441c3.843,6.918,10.099,17.134,17.601,29.039c-11.125-0.354-18.653,2.02-25.163,4.078
			c-9.693,3.064-17.35,5.486-38.907-3.672c-21.148-8.985-35.204-2.368-46.497,2.946c-7.57,3.563-13.006,6.116-20.104,4.591
			C197.861,101.709,206.107,88.415,210.781,80.001z M378.772,231.343c-0.051,3.879-0.109,8.274-0.109,13.277v208.998H322.71
			c-5.523,0-10,4.478-10,10c0,5.522,4.477,10,10,10h55.953v1.383c0.001,9.374-7.625,17-16.999,17H150.339
			c-9.374,0-17-7.626-17-16.999V244.621c0-5.003-0.058-9.398-0.109-13.276c-0.3-22.897-0.361-27.653,13.008-49.063h60.447
			c5.523,0,10-4.477,10-10c0-5.522-4.477-10-10-10h-47.637c1.686-2.615,3.403-5.277,5.145-7.979
			c4.288-6.649,8.603-13.34,12.811-19.889c5.575,2.17,10.644,3.032,15.295,3.032c9.689,0,17.573-3.71,24.473-6.958
			c10.014-4.714,17.251-8.118,30.16-2.634c28.361,12.048,40.763,8.126,52.758,4.332c8.328-2.633,16.222-5.13,33.256-0.967
			c4.856,7.567,9.888,15.371,14.884,23.116c5.339,8.278,10.472,16.237,15.017,23.337
			C379.142,203.13,379.093,206.889,378.772,231.343z"/>
	</g>
</g>
<g>
	<g>
		<path d="M236.733,162.282h-0.324c-5.523,0-10,4.478-10,10c0,5.523,4.477,10,10,10h0.324c5.523,0,10-4.477,10-10
			C246.733,166.76,242.256,162.282,236.733,162.282z"/>
	</g>
</g>
<g>
	<g>
		<path d="M292.988,453.619h-0.324c-5.523,0-10,4.478-10,10c0,5.522,4.477,10,10,10h0.324c5.523,0,10-4.478,10-10
			C302.988,458.097,298.511,453.619,292.988,453.619z"/>
	</g>
</g>
<g>
</g>
<g>
</g>
<g>
</g>
<g>
</g>
<g>
</g>
<g>
</g>
<g>
</g>
<g>
</g>
<g>
</g>
<g>
</g>
<g>
</g>
<g>
</g>
<g>
</g>
<g>
</g>
<g>
</g>
</svg>
