<?xml version="1.0" encoding="iso-8859-1"?>
<!-- Generator: Adobe Illustrator 19.0.0, SVG Export Plug-In . SVG Version: 6.00 Build 0)  -->
<svg version="1.1" id="Capa_1" xmlns="http://www.w3.org/2000/svg" xmlns:xlink="http://www.w3.org/1999/xlink" x="0px" y="0px"
	 viewBox="0 0 512.002 512.002" style="enable-background:new 0 0 512.002 512.002;" xml:space="preserve">
<g>
	<g>
		<path d="M464.878,14.604c1.607-3.101,1.482-6.814-0.332-9.799C462.733,1.822,459.494,0,456.001,0H56.002
			c-3.365,0-6.504,1.692-8.354,4.504c-1.85,2.811-2.161,6.363-0.83,9.453l24.738,57.406v369.873l-17.335,57.898
			c-0.906,3.027-0.328,6.305,1.558,8.84c1.888,2.534,4.861,4.028,8.021,4.028h379.198c0.005-0.001,0.012-0.001,0.02,0
			c5.523,0,10-4.477,10-10c0-1.23-0.222-2.408-0.628-3.497l-17.147-57.269V71.739L464.878,14.604z M77.234,492.002l11.767-39.301
			h328.798l11.768,39.301H77.234z M91.557,432.701V79.3h323.687v353.401H91.557z M419.166,59.3H88.137L71.201,20H439.55
			L419.166,59.3z"/>
	</g>
</g>
<g>
	<g>
		<path d="M357.811,189.854c-6.876-6.877-15.918-10.801-25.589-11.136c-0.321-9.444-4.168-18.621-11.159-25.613
			c-7.196-7.195-16.764-11.159-26.94-11.159c-10.177,0-19.744,3.964-26.939,11.159c-12.157,12.158-14.331,30.85-6.412,45.328
			l-64.512,64.512c-6.019-3.801-12.997-5.836-20.289-5.836c-10.177,0-19.744,3.964-26.939,11.159
			c-7.196,7.195-11.16,16.763-11.16,26.94s3.964,19.744,11.159,26.94c6.877,6.876,15.918,10.8,25.589,11.134
			c0.321,9.445,4.168,18.622,11.159,25.614c7.195,7.195,16.764,11.158,26.939,11.158c10.177,0,19.744-3.963,26.941-11.159
			c11.722-11.723,14.349-29.107,7.458-43.384l65.348-65.349c5.58,3.085,11.882,4.729,18.409,4.729
			c10.174,0.001,19.741-3.962,26.937-11.158c7.195-7.196,11.159-16.764,11.159-26.941S365.006,197.048,357.811,189.854z
			 M343.669,229.592c-3.418,3.418-7.962,5.301-12.796,5.301c-4.696,0-9.147-1.789-12.529-5.037
			c-3.926-3.773-10.147-3.708-13.998,0.14l-77.017,77.017c-3.646,3.646-3.922,9.466-0.638,13.44
			c5.964,7.219,5.458,17.666-1.177,24.301c-3.418,3.418-7.963,5.301-12.798,5.301c-4.834,0-9.38-1.883-12.798-5.3
			c-5.205-5.206-6.741-12.962-3.914-19.761c1.555-3.739,0.701-8.047-2.162-10.911c-1.913-1.913-4.471-2.929-7.073-2.929
			c-1.293,0-2.597,0.251-3.838,0.767c-2.21,0.919-4.553,1.385-6.964,1.385c-4.834,0-9.379-1.882-12.796-5.3
			c-3.419-3.418-5.302-7.964-5.302-12.798c0-4.834,1.883-9.379,5.302-12.797c3.418-3.419,7.964-5.302,12.798-5.302
			c4.834,0,9.379,1.883,12.807,5.312c0.235,0.234,0.462,0.475,0.681,0.719c1.835,2.041,4.428,3.237,7.171,3.31
			c2.781,0.099,5.395-0.986,7.336-2.925l76.955-76.954c3.849-3.85,3.912-10.07,0.142-13.997c-6.769-7.05-6.65-18.411,0.265-25.326
			c3.418-3.418,7.963-5.301,12.797-5.301c4.834,0,9.38,1.883,12.798,5.302c5.206,5.205,6.742,12.961,3.915,19.76
			c-1.555,3.739-0.701,8.047,2.162,10.911c2.863,2.864,7.172,3.716,10.911,2.162c2.21-0.919,4.554-1.386,6.965-1.386
			c4.834,0,9.378,1.883,12.796,5.301c3.418,3.418,5.301,7.963,5.301,12.797C348.971,221.628,347.088,226.174,343.669,229.592z"/>
	</g>
</g>
<g>
	<g>
		<path d="M294.569,397.701h-0.324c-5.522,0-10,4.478-10,10c0,5.522,4.478,10,10,10h0.324c5.522,0,10-4.478,10-10
			C304.569,402.179,300.091,397.701,294.569,397.701z"/>
	</g>
</g>
<g>
	<g>
		<path d="M390.244,397.701h-65.953c-5.522,0-10,4.478-10,10c0,5.522,4.478,10,10,10h65.952c5.522,0,10-4.478,10-10
			C400.244,402.179,395.766,397.701,390.244,397.701z"/>
	</g>
</g>
<g>
	<g>
		<path d="M182.509,94.301h-65.952c-5.522,0-10,4.478-10,10c0,5.522,4.478,10,10,10h65.952c5.523,0,10-4.478,10-10
			C192.509,98.779,188.031,94.301,182.509,94.301z"/>
	</g>
</g>
<g>
	<g>
		<path d="M212.557,94.301h-0.324c-5.522,0-10,4.478-10,10c0,5.522,4.477,10,10,10h0.324c5.522,0,10-4.478,10-10
			C222.557,98.779,218.079,94.301,212.557,94.301z"/>
	</g>
</g>
<g>
</g>
<g>
</g>
<g>
</g>
<g>
</g>
<g>
</g>
<g>
</g>
<g>
</g>
<g>
</g>
<g>
</g>
<g>
</g>
<g>
</g>
<g>
</g>
<g>
</g>
<g>
</g>
<g>
</g>
</svg>
