<?xml version="1.0" encoding="iso-8859-1"?>
<!-- Generator: Adobe Illustrator 19.0.0, SVG Export Plug-In . SVG Version: 6.00 Build 0)  -->
<svg version="1.1" id="Capa_1" xmlns="http://www.w3.org/2000/svg" xmlns:xlink="http://www.w3.org/1999/xlink" x="0px" y="0px"
	 viewBox="0 0 512.001 512.001" style="enable-background:new 0 0 512.001 512.001;" xml:space="preserve">
<g>
	<g>
		<path d="M366,0H146.001c-27.57,0-50,22.43-50,50v412.001c0,27.57,22.43,50,50,50H366c27.57,0,50-22.43,50-50V50
			C416,22.43,393.57,0,366,0z M396,462.001c0,16.542-13.458,30-30,30H146.001c-16.542,0-30-13.458-30-30V50
			c0-16.542,13.458-30,30-30H366c16.542,0,30,13.458,30,30V462.001z"/>
	</g>
</g>
<g>
	<g>
		<path d="M306.604,312.518V103.675c0-27.413-22.701-49.716-50.604-49.716s-50.605,22.303-50.605,49.716v208.844
			c-20.268,15.347-32.211,38.998-32.211,64.301c0,44.786,37.151,81.223,82.815,81.223s82.815-36.437,82.815-81.223
			C338.815,351.517,326.872,327.865,306.604,312.518z M225.396,220.683h15.316c5.523,0,10-4.478,10-10c0-5.523-4.477-10-10-10
			h-15.316v-20.001h15.316c5.523,0,10-4.477,10-10c0-5.522-4.477-10-10-10h-15.316V140.68h15.316c5.523,0,10-4.478,10-10
			c0-5.522-4.477-10-10-10h-15.316v-17.005c0-16.386,13.729-29.716,30.605-29.716c16.875,0,30.603,13.33,30.603,29.716v145.059
			h-61.208V220.683z M256.001,438.042c-34.637,0-62.815-27.464-62.815-61.223c0-20.372,10.358-39.354,27.709-50.776
			c2.81-1.85,4.501-4.988,4.501-8.353v-48.957h61.208v48.957c0,3.364,1.691,6.503,4.502,8.353
			c17.351,11.422,27.709,30.404,27.709,50.776C318.815,410.578,290.637,438.042,256.001,438.042z"/>
	</g>
</g>
<g>
	<g>
		<path d="M141.001,135.675c-5.523,0-10,4.477-10,10v0.324c0,5.523,4.477,10,10,10c5.523,0,10-4.477,10-10v-0.324
			C151.001,140.152,146.524,135.675,141.001,135.675z"/>
	</g>
</g>
<g>
	<g>
		<path d="M141.001,40c-5.523,0-10,4.478-10,10v65.952c0,5.522,4.477,10,10,10c5.523,0,10-4.478,10-10V50
			C151.001,44.478,146.524,40,141.001,40z"/>
	</g>
</g>
<g>
	<g>
		<path d="M371.001,386.049c-5.522,0-10,4.478-10,10v65.953c0,5.523,4.478,10,10,10c5.522,0,10-4.477,10-10v-65.953
			C381.001,390.526,376.523,386.049,371.001,386.049z"/>
	</g>
</g>
<g>
	<g>
		<path d="M371.001,356.002c-5.522,0-10,4.478-10,10v0.324c0,5.522,4.478,10,10,10c5.522,0,10-4.478,10-10v-0.324
			C381.001,360.479,376.523,356.002,371.001,356.002z"/>
	</g>
</g>
<g>
</g>
<g>
</g>
<g>
</g>
<g>
</g>
<g>
</g>
<g>
</g>
<g>
</g>
<g>
</g>
<g>
</g>
<g>
</g>
<g>
</g>
<g>
</g>
<g>
</g>
<g>
</g>
<g>
</g>
</svg>
