<?xml version="1.0" encoding="iso-8859-1"?>
<!-- Generator: Adobe Illustrator 19.0.0, SVG Export Plug-In . SVG Version: 6.00 Build 0)  -->
<svg version="1.1" id="Capa_1" xmlns="http://www.w3.org/2000/svg" xmlns:xlink="http://www.w3.org/1999/xlink" x="0px" y="0px"
	 viewBox="0 0 512 512" style="enable-background:new 0 0 512 512;" xml:space="preserve">
<g>
	<g>
		<path d="M363.102,0H148.898C125.244,0,106,19.244,106,42.897v426.204C106,492.756,125.244,512,148.898,512h214.203
			C386.756,512,406,492.756,406,469.102V42.897C406,19.244,386.756,0,363.102,0z M386,469.102C386,481.728,375.728,492,363.102,492
			H148.898C136.272,492,126,481.728,126,469.102v-42.665h260V469.102z M386,406.437H126V73.476h260V406.437z M386,53.475H126V42.897
			C126,30.271,136.272,20,148.898,20h214.203C375.728,20,386,30.271,386,42.897V53.475z"/>
	</g>
</g>
<g>
	<g>
		<path d="M256.258,442.923c-8.974,0-16.293,7.319-16.293,16.294c0,8.974,7.319,16.293,16.293,16.293
			c8.975,0,16.294-7.319,16.294-16.293C272.552,450.242,265.232,442.923,256.258,442.923z"/>
	</g>
</g>
<g>
	<g>
		<path d="M256,248.797c-29.403,0-53.324,24.001-53.324,53.501s23.921,53.5,53.324,53.5s53.324-24,53.324-53.5
			S285.403,248.797,256,248.797z M256,335.798c-18.375,0-33.324-15.028-33.324-33.5c0-18.473,14.949-33.501,33.324-33.501
			s33.324,15.028,33.324,33.501C289.324,320.77,274.375,335.798,256,335.798z"/>
	</g>
</g>
<g>
	<g>
		<path d="M319.953,193.632c-17.528,0-31.788,15.079-31.788,33.613s14.26,33.612,31.788,33.612
			c17.527,0,31.787-15.078,31.787-33.612S337.48,193.632,319.953,193.632z M319.953,240.856c-6.5,0-11.788-6.107-11.788-13.612
			c0-7.507,5.288-13.613,11.788-13.613c6.499,0,11.787,6.106,11.787,13.613C331.74,234.75,326.452,240.856,319.953,240.856z"/>
	</g>
</g>
<g>
	<g>
		<path d="M256.705,164.116c-17.527,0-31.787,15.078-31.787,33.612s14.26,33.613,31.787,33.613
			c17.527,0,31.787-15.079,31.787-33.613C288.492,179.194,274.232,164.116,256.705,164.116z M256.705,211.34
			c-6.499,0-11.787-6.106-11.787-13.613c0-7.505,5.288-13.612,11.787-13.612c6.5,0,11.787,6.106,11.787,13.612
			C268.492,205.234,263.204,211.34,256.705,211.34z"/>
	</g>
</g>
<g>
	<g>
		<path d="M192.047,193.631c-17.528,0-31.788,15.079-31.788,33.613s14.26,33.612,31.788,33.612
			c17.527,0.001,31.787-15.078,31.787-33.612S209.574,193.631,192.047,193.631z M192.047,240.857c-6.5,0-11.788-6.107-11.788-13.612
			c0-7.507,5.288-13.613,11.788-13.613c6.499,0,11.787,6.106,11.787,13.613C203.834,234.75,198.546,240.857,192.047,240.857z"/>
	</g>
</g>
<g>
	<g>
		<path d="M247,88.477h-0.324c-5.523,0-10,4.478-10,10c0,5.522,4.477,10,10,10H247c5.523,0,10-4.478,10-10
			C257,92.955,252.523,88.477,247,88.477z"/>
	</g>
</g>
<g>
	<g>
		<path d="M216.953,88.477H151c-5.523,0-10,4.478-10,10c0,5.522,4.477,10,10,10h65.953c5.523,0,10-4.478,10-10
			C226.953,92.955,222.476,88.477,216.953,88.477z"/>
	</g>
</g>
<g>
</g>
<g>
</g>
<g>
</g>
<g>
</g>
<g>
</g>
<g>
</g>
<g>
</g>
<g>
</g>
<g>
</g>
<g>
</g>
<g>
</g>
<g>
</g>
<g>
</g>
<g>
</g>
<g>
</g>
</svg>
