<?xml version="1.0" encoding="iso-8859-1"?>
<!-- Generator: Adobe Illustrator 19.0.0, SVG Export Plug-In . SVG Version: 6.00 Build 0)  -->
<svg version="1.1" id="Capa_1" xmlns="http://www.w3.org/2000/svg" xmlns:xlink="http://www.w3.org/1999/xlink" x="0px" y="0px"
	 viewBox="0 0 512 512" style="enable-background:new 0 0 512 512;" xml:space="preserve">
<g>
	<g>
		<path d="M432.633,115.557V84.038c0-5.522-4.477-10-10-10s-10,4.478-10,10v31.519c-16.321,4.412-28.368,19.341-28.368,37.037
			v83.926c0,17.696,12.047,32.625,28.368,37.037v172.435c0,25.369-20.634,46.008-45.997,46.008H240.555
			c-21.928,0-40.31-15.433-44.889-36.007h26.961c18.327,0,33.237-14.911,33.237-33.238v-13.237h4.035
			c32.101,0,58.217-26.116,58.217-58.217V152.35c0-32.101-26.116-58.217-58.217-58.217h-4.035V80.895
			c0-18.327-14.91-33.237-33.237-33.237h-28.068V10c0-5.522-4.477-10-10-10c-5.523,0-10,4.478-10,10v37.657H146.49
			c-18.328,0-33.238,14.91-33.238,33.237v13.238h-4.034C77.117,94.133,51,120.249,51,152.35v198.951
			c0,32.101,26.117,58.217,58.218,58.217h4.034v13.237c0,18.327,14.911,33.238,33.238,33.238h28.825
			c4.833,31.668,32.248,56.007,65.24,56.007h126.081c36.391,0,65.997-29.611,65.997-66.008V273.557
			C448.954,269.145,461,254.216,461,236.52v-83.926C461,134.898,448.954,119.969,432.633,115.557z M133.252,80.895
			c0-7.299,5.938-13.237,13.238-13.237h76.137c7.299,0,13.237,5.938,13.237,13.237v13.238H133.252V80.895z M71,279.358h61.677
			c5.523,0,10-4.478,10-10c0-5.522-4.477-10-10-10H71v-28.499h40.859c5.523,0,10-4.478,10-10c0-5.522-4.477-10-10-10H71v-28.5
			h61.677c5.523,0,10-4.478,10-10c0-5.522-4.477-10-10-10H71v-10.01c0-21.073,17.145-38.216,38.218-38.216H259.9
			c21.073,0,38.217,17.144,38.217,38.217v157.714L71,310.122V279.358z M109.218,389.517C88.145,389.518,71,372.374,71,351.301
			v-21.179l227.116-0.059V351.3c0,21.073-17.144,38.217-38.217,38.217H109.218z M184.578,435.993c-0.007,0-0.013-0.001-0.02-0.001
			c-0.006,0-0.013,0.001-0.02,0.001H146.49c-7.3,0-13.238-5.938-13.238-13.238v-13.237h102.612v13.237
			c0,7.3-5.938,13.238-13.237,13.238H184.578z M441,236.52c0,10.128-8.239,18.367-18.367,18.367s-18.368-8.239-18.368-18.367
			v-83.926c0-10.128,8.24-18.367,18.368-18.367S441,142.466,441,152.594V236.52z"/>
	</g>
</g>
<g>
	<g>
		<path d="M162.719,162.359h-0.324c-5.523,0-10,4.478-10,10c0,5.523,4.477,10,10,10h0.324c5.523,0,10-4.478,10-10
			C172.719,166.837,168.242,162.359,162.719,162.359z"/>
	</g>
</g>
<g>
	<g>
		<path d="M162.719,259.358h-0.324c-5.523,0-10,4.478-10,10c0,5.523,4.477,10,10,10h0.324c5.523,0,10-4.478,10-10
			C172.719,263.836,168.242,259.358,162.719,259.358z"/>
	</g>
</g>
<g>
</g>
<g>
</g>
<g>
</g>
<g>
</g>
<g>
</g>
<g>
</g>
<g>
</g>
<g>
</g>
<g>
</g>
<g>
</g>
<g>
</g>
<g>
</g>
<g>
</g>
<g>
</g>
<g>
</g>
</svg>
