<?xml version="1.0" encoding="iso-8859-1"?>
<!-- Generator: Adobe Illustrator 19.0.0, SVG Export Plug-In . SVG Version: 6.00 Build 0)  -->
<svg version="1.1" id="Capa_1" xmlns="http://www.w3.org/2000/svg" xmlns:xlink="http://www.w3.org/1999/xlink" x="0px" y="0px"
	 viewBox="0 0 512 512" style="enable-background:new 0 0 512 512;" xml:space="preserve">
<g>
	<g>
		<path d="M482,106h-73.626V77.391c0-17.609-14.327-31.937-31.938-31.937h-22.355C349.804,34.101,338.832,26,326.001,26H186
			c-12.832,0-23.803,8.101-28.081,19.454h-22.355c-17.61,0-31.938,14.327-31.938,31.937V106H30c-16.542,0-30,13.458-30,30v320
			c0,16.542,13.458,30,30,30h452c16.542,0,30-13.458,30-30V136C512,119.458,498.542,106,482,106z M186,46h140.001
			c5.514,0,9.999,4.486,9.999,10s-4.485,10-9.999,10H186c-5.514,0-10-4.486-10-10S180.486,46,186,46z M123.627,77.391
			c0-6.582,5.355-11.937,11.938-11.937h21.971C161.505,77.376,172.761,86,186,86h140.001c13.238,0,24.494-8.624,28.464-20.546
			h21.972c6.582,0,11.938,5.354,11.938,11.937V106H123.627V77.391z M492,456c0,5.514-4.486,10-10,10H30c-5.514,0-10-4.486-10-10V136
			c0-5.514,4.486-10,10-10h452c5.514,0,10,4.486,10,10V456z"/>
	</g>
</g>
<g>
	<g>
		<path d="M256,284.572c-34.922,0-63.333,28.509-63.333,63.55c0,35.042,28.411,63.551,63.333,63.551
			c34.923,0,63.334-28.509,63.334-63.551C319.334,313.081,290.923,284.572,256,284.572z M256,391.673
			c-23.893,0-43.333-19.537-43.333-43.551c0-24.014,19.439-43.55,43.333-43.55c23.895,0,43.334,19.536,43.334,43.55
			S279.895,391.673,256,391.673z"/>
	</g>
</g>
<g>
	<g>
		<path d="M256.001,180.328c-20.304,0-36.822,17.525-36.822,39.067s16.518,39.068,36.822,39.068c20.303,0,36.82-17.526,36.82-39.068
			S276.303,180.328,256.001,180.328z M256.001,238.462c-9.276,0-16.822-8.554-16.822-19.068c0-10.513,7.546-19.067,16.822-19.067
			c9.274,0,16.82,8.554,16.82,19.067C272.821,229.909,265.275,238.462,256.001,238.462z"/>
	</g>
</g>
<g>
	<g>
		<path d="M334.728,216.662c-20.303,0-36.82,17.526-36.82,39.068c0,21.542,16.518,39.067,36.82,39.067
			c20.304,0,36.822-17.525,36.822-39.067S355.031,216.662,334.728,216.662z M334.728,274.798c-9.275,0-16.82-8.554-16.82-19.067
			c0-10.515,7.546-19.068,16.82-19.068c9.276,0,16.822,8.554,16.822,19.068C351.55,266.244,344.004,274.798,334.728,274.798z"/>
	</g>
</g>
<g>
	<g>
		<path d="M177.273,216.662c-20.303,0-36.821,17.526-36.821,39.068s16.518,39.067,36.821,39.067s36.821-17.525,36.821-39.067
			S197.576,216.662,177.273,216.662z M177.273,274.798c-9.275,0-16.821-8.554-16.821-19.067c0-10.515,7.546-19.068,16.821-19.068
			c9.275,0,16.821,8.554,16.821,19.068C194.094,266.244,186.548,274.798,177.273,274.798z"/>
	</g>
</g>
<g>
	<g>
		<path d="M110.953,141H45.001c-5.522,0-10,4.478-10,10c0,5.523,4.478,10,10,10h65.952c5.522,0,10-4.477,10-10
			C120.953,145.478,116.476,141,110.953,141z"/>
	</g>
</g>
<g>
	<g>
		<path d="M141,141h-0.324c-5.522,0-10,4.478-10,10c0,5.523,4.478,10,10,10H141c5.523,0,10-4.477,10-10
			C151,145.478,146.523,141,141,141z"/>
	</g>
</g>
<g>
	<g>
		<path d="M467,430.999h-65.952c-5.523,0-10,4.477-10,10c0,5.522,4.477,10,10,10H467c5.522,0,10-4.478,10-10
			C477,435.477,472.522,430.999,467,430.999z"/>
	</g>
</g>
<g>
	<g>
		<path d="M371.324,430.999h-0.323c-5.523,0-10,4.477-10,10c0,5.522,4.477,10,10,10h0.323c5.523,0,10-4.478,10-10
			C381.324,435.477,376.847,430.999,371.324,430.999z"/>
	</g>
</g>
<g>
</g>
<g>
</g>
<g>
</g>
<g>
</g>
<g>
</g>
<g>
</g>
<g>
</g>
<g>
</g>
<g>
</g>
<g>
</g>
<g>
</g>
<g>
</g>
<g>
</g>
<g>
</g>
<g>
</g>
</svg>
