<?xml version="1.0" encoding="iso-8859-1"?>
<!-- Generator: Adobe Illustrator 19.0.0, SVG Export Plug-In . SVG Version: 6.00 Build 0)  -->
<svg version="1.1" id="Capa_1" xmlns="http://www.w3.org/2000/svg" xmlns:xlink="http://www.w3.org/1999/xlink" x="0px" y="0px"
	 viewBox="0 0 512.001 512.001" style="enable-background:new 0 0 512.001 512.001;" xml:space="preserve">
<g>
	<g>
		<path d="M481.202,30.798C454.217,3.813,425.511-0.784,406.172,0.1c-21.721,1-43.358,9.767-56.47,22.877
			c-18.193,18.193-19.805,25.626-21.088,37.196c-0.105,0.953-0.213,1.923-0.341,2.932l-16.89,16.89l-0.498-0.498
			c-8.462-8.462-19.749-13.122-31.781-13.122c-12.031,0-23.318,4.66-31.781,13.123c-17.523,17.524-17.523,46.038,0,63.561
			l0.463,0.462L140.303,251.005c-12.246,12.246-20.371,27.745-23.495,44.821c-2.631,14.375-1.59,29.006,2.991,42.709l-13.962,13.963
			c-14.646,14.647-14.646,38.478,0,53.125c7.074,7.073,16.508,10.969,26.564,10.969c10.056,0,19.489-3.896,26.563-10.969
			l13.693-13.694c8.976,3.104,18.361,4.672,27.993,4.672c0.001,0,0.004,0,0.006,0c22.854-0.002,44.283-8.846,60.341-24.902
			L368.48,264.214l0.462,0.462c8.462,8.463,19.748,13.123,31.78,13.123c12.032,0,23.319-4.661,31.782-13.123
			c17.522-17.523,17.523-46.037,0-63.561l-0.498-0.499l16.889-16.889c1.01-0.127,1.979-0.235,2.933-0.341
			c11.57-1.283,19.002-2.896,37.195-21.088c13.11-13.11,21.877-34.748,22.877-56.47C512.791,86.495,508.187,57.784,481.202,30.798z
			 M246.854,357.556c-12.279,12.28-28.688,19.044-46.2,19.045c-9.189,0.001-18.082-1.856-26.43-5.52
			c-3.774-1.656-8.176-0.829-11.09,2.086l-18.314,18.314c-3.296,3.296-7.707,5.111-12.42,5.111c-4.714,0-9.125-1.815-12.421-5.111
			c-6.849-6.85-6.849-17.993,0-24.842l18.528-18.528c2.885-2.886,3.728-7.234,2.129-10.988
			c-10.39-24.403-4.841-53.327,13.809-71.976l2.939-2.939l24.384,24.383c1.953,1.952,4.512,2.929,7.071,2.929
			c2.559,0,5.118-0.977,7.071-2.929c3.905-3.905,3.905-10.237,0-14.143l-24.384-24.383l20.151-20.152l19.208,19.207
			c1.953,1.952,4.512,2.929,7.071,2.929c2.56,0,5.118-0.977,7.071-2.929c3.905-3.905,3.905-10.237,0-14.143l-19.208-19.207
			l20.151-20.152l24.385,24.385c1.953,1.952,4.512,2.929,7.071,2.929c2.56,0,5.118-0.977,7.071-2.929
			c3.905-3.905,3.905-10.237,0-14.143l-24.385-24.385l21.813-21.813l46.204,46.205l46.209,46.206L246.854,357.556z M418.361,250.535
			c-4.685,4.685-10.948,7.265-17.639,7.265c-6.689,0-12.954-2.58-17.638-7.265l-121.62-121.619
			c-4.684-4.684-7.264-10.947-7.263-17.638c0-6.69,2.58-12.954,7.265-17.64c4.684-4.684,10.948-7.264,17.638-7.264
			s12.954,2.58,17.639,7.265l121.619,121.617C428.088,224.983,428.088,240.809,418.361,250.535z M491.922,104.909
			c-0.934,20.277-9.764,35.971-17.041,43.247c-14.116,14.117-17.378,14.479-25.258,15.353c-2.045,0.227-4.362,0.484-7.086,0.936
			c-2.06,0.341-3.96,1.318-5.437,2.794l-19.236,19.236l-92.338-92.337L344.764,74.9c1.476-1.477,2.453-3.378,2.794-5.438
			c0.451-2.723,0.708-5.04,0.935-7.085c0.874-7.88,1.235-11.142,15.353-25.258c7.277-7.277,22.971-16.107,43.248-17.041
			c15.3-0.711,38.142,3.036,59.967,24.862C488.886,66.767,492.627,89.599,491.922,104.909z"/>
	</g>
</g>
<g>
	<g>
		<path d="M285.761,225.122l-0.229-0.23c-3.896-3.914-10.228-3.927-14.142-0.03c-3.914,3.896-3.928,10.229-0.03,14.142l0.229,0.23
			c1.954,1.963,4.52,2.944,7.086,2.944c2.552,0,5.104-0.971,7.056-2.914C289.645,235.368,289.659,229.035,285.761,225.122z"/>
	</g>
</g>
<g>
	<g>
		<path d="M217.156,293.695l-0.228-0.229c-3.906-3.904-10.236-3.904-14.143,0c-3.905,3.905-3.905,10.237,0,14.143l0.229,0.229
			c1.953,1.952,4.512,2.929,7.071,2.929c2.559,0,5.118-0.977,7.071-2.929C221.061,303.933,221.061,297.601,217.156,293.695z"/>
	</g>
</g>
<g>
	<g>
		<path d="M90.448,422.627c-2.033-2.079-4.867-3.163-7.771-2.99l-0.453,0.028c-12.87,0.798-32.321,2.005-48.691,7.856
			C5.817,437.428,0,455.927,0,469.702c0,10.968,4.232,21.389,11.916,29.344c7.821,8.096,18.272,12.692,29.427,12.942
			c0.375,0.009,0.743,0.013,1.112,0.013c13.472,0,31.689-5.728,41.978-33.017c6.086-16.143,7.714-35.362,8.791-48.08l0.037-0.441
			C93.507,427.567,92.48,424.706,90.448,422.627z M42.455,492c-0.219,0-0.438-0.002-0.662-0.007
			c-5.854-0.132-11.355-2.563-15.492-6.844C22.237,480.944,20,475.457,20,469.702c0-21.182,25.267-26.886,52.218-29.252
			C69.277,467.073,63.109,492,42.455,492z"/>
	</g>
</g>
<g>
</g>
<g>
</g>
<g>
</g>
<g>
</g>
<g>
</g>
<g>
</g>
<g>
</g>
<g>
</g>
<g>
</g>
<g>
</g>
<g>
</g>
<g>
</g>
<g>
</g>
<g>
</g>
<g>
</g>
</svg>
