<?xml version="1.0" encoding="iso-8859-1"?>
<!-- Generator: Adobe Illustrator 19.0.0, SVG Export Plug-In . SVG Version: 6.00 Build 0)  -->
<svg version="1.1" id="Capa_1" xmlns="http://www.w3.org/2000/svg" xmlns:xlink="http://www.w3.org/1999/xlink" x="0px" y="0px"
	 viewBox="0 0 512.001 512.001" style="enable-background:new 0 0 512.001 512.001;" xml:space="preserve">
<g>
	<g>
		<path d="M129.187,149.826c-3.261-4.457-9.518-5.428-13.975-2.167l-0.254,0.189c-4.418,3.313-5.281,9.557-1.967,13.975
			c1.96,2.613,4.963,3.985,8.005,3.985c2.102,0,4.222-0.655,6.027-2.009C131.478,160.538,132.447,154.283,129.187,149.826z"/>
	</g>
</g>
<g>
	<g>
		<path d="M224.407,114.497c-0.955-5.44-6.143-9.075-11.578-8.121c-25.491,4.474-49.787,12.924-72.215,25.115
			c-4.853,2.637-6.648,8.71-4.01,13.562c1.813,3.335,5.248,5.226,8.794,5.226c1.613,0,3.25-0.392,4.767-1.216
			c20.521-11.154,42.767-18.889,66.12-22.987C221.725,125.12,225.361,119.936,224.407,114.497z"/>
	</g>
</g>
<g>
	<g>
		<path d="M464.442,165.908c11.326-48.421,6.334-123.516-17.909-152.722C436.816,1.481,426.29-0.432,419.098,0.072
			c-36.015,1.369-95.003,46.203-114.638,71.562c-15.798-2.716-32.008-4.11-48.459-4.11c-16.452,0-32.662,1.395-48.46,4.11
			C187.906,46.276,128.919,1.441,92.902,0.072c-7.197-0.499-17.719,1.409-27.435,13.114
			C41.223,42.392,36.232,117.488,47.559,165.909c-27.036,35.728-41.56,77.669-41.56,121.615c0,88.149,59.32,167.366,151.237,202.161
			c2.682,1.821,5.521,3.54,8.535,5.145c21.403,11.394,51.761,17.171,90.23,17.171s68.826-5.777,90.23-17.171
			c3.015-1.605,5.853-3.324,8.536-5.145c91.917-34.795,151.236-114.012,151.236-202.161
			C506.002,243.577,491.479,201.638,464.442,165.908z M419.973,20.053c0.145-0.004,0.288-0.013,0.432-0.023
			c1.346-0.105,5.466-0.422,10.739,5.93c16.339,19.684,23.331,75.566,16.673,120.428c-4.379-4.592-8.99-9.048-13.827-13.361
			c1.759-50.75-5.007-75.898-22.38-83.738c-16.152-7.29-36.801,2.28-68.479,31.917c-5.411-1.766-10.895-3.368-16.444-4.799
			C347.788,54.372,394.797,20.895,419.973,20.053z M414.252,117.162c-15.484-11.174-32.277-20.569-50.045-28.083
			c26.352-23.159,36.063-22.967,39.175-21.562C406.846,69.079,414.106,77.156,414.252,117.162z M80.856,25.96
			c5.271-6.35,9.388-6.034,10.739-5.93c0.144,0.011,0.288,0.019,0.432,0.023c25.178,0.842,72.187,34.319,93.287,56.353
			c-5.549,1.431-11.032,3.033-16.444,4.799C137.193,51.568,116.543,42,100.392,49.287c-17.374,7.84-24.139,32.987-22.381,83.74
			c-4.837,4.313-9.448,8.77-13.827,13.361C57.526,101.527,64.516,45.644,80.856,25.96z M147.795,89.08
			c-17.768,7.513-34.561,16.908-50.045,28.084c0.147-40.008,7.407-48.083,10.87-49.646C111.731,66.111,121.443,65.921,147.795,89.08
			z M344.771,472.285c-0.327,0.203-0.639,0.424-0.936,0.659c-15.878,10.84-42.658,19.055-87.837,19.055
			c-45.182,0.001-71.965-8.217-87.842-19.059c-0.293-0.231-0.6-0.45-0.923-0.65c-22.18-15.713-22.191-36.605-22.191-46.126
			c0-29.197,15.869-66.653,41.83-93.155c0.001-0.001,0.002-0.002,0.003-0.003c0,0,0.001-0.001,0.001-0.002
			c8.108-8.276,17.197-15.479,27.101-21.03c2.779,4.991,6.732,9.737,11.773,14.013c6.246,5.298,13.359,9.161,20.248,11.152v40.507
			c-3.438,4.689-8.815,7.524-14.517,7.524c-6.464,0-12.514-3.639-15.788-9.496c-2.695-4.82-8.787-6.544-13.608-3.849
			c-4.821,2.695-6.544,8.788-3.849,13.608c6.806,12.174,19.545,19.736,33.245,19.736c9.081,0,17.728-3.338,24.516-9.124
			c6.789,5.786,15.436,9.124,24.517,9.124c13.699,0,26.438-7.562,33.245-19.735c2.695-4.82,0.973-10.914-3.848-13.609
			c-4.821-2.696-10.913-0.973-13.609,3.847c-3.275,5.858-9.325,9.497-15.788,9.497c-5.702,0-11.08-2.835-14.517-7.524v-40.507
			c6.89-1.991,14.002-5.854,20.248-11.152c5.041-4.276,8.993-9.022,11.771-14.013c9.903,5.551,18.992,12.753,27.1,21.028
			c0.001,0.001,0.002,0.003,0.003,0.004c0.002,0.002,0.005,0.004,0.007,0.006c25.96,26.502,41.828,63.956,41.828,93.152
			C366.956,435.682,366.944,456.572,344.771,472.285z M229.26,294.739c0-3.565,0-13.035,26.74-13.035
			c26.739,0,26.739,9.47,26.739,13.035c0.001,11.628-17.387,23.926-26.739,23.926C246.648,318.665,229.26,306.367,229.26,294.739z
			 M382.383,454.658c3.04-8.584,4.576-18.086,4.576-28.494c0-12.591-2.342-26.146-6.718-39.728
			c12.875-1.697,25.783,0.356,38.507,6.179c1.349,0.617,2.763,0.909,4.155,0.909c3.791,0,7.418-2.168,9.099-5.841
			c2.299-5.022,0.091-10.956-4.932-13.254c-17.865-8.176-36.102-10.529-54.324-7.051c-1.935-4.165-4.057-8.286-6.349-12.342
			c24.576-12.075,51.473-15.581,80.099-10.404c5.438,0.982,10.637-2.626,11.621-8.06c0.982-5.435-2.626-10.637-8.061-11.62
			c-33.774-6.109-65.524-1.677-94.528,13.155c-2.795-3.847-5.72-7.543-8.759-11.073c20.206-16.073,44.274-24.767,71.706-25.839
			c5.518-0.215,9.817-4.864,9.602-10.382c-0.215-5.52-4.866-9.805-10.383-9.603c-32.539,1.271-61.071,11.832-84.955,31.419
			c-9.42-8.516-19.572-15.566-30.123-20.854c-1.011-12.418-9.056-30.068-46.614-30.068c-37.56,0-45.604,17.65-46.615,30.068
			c-10.551,5.288-20.704,12.338-30.124,20.854c-23.883-19.586-52.415-30.148-84.956-31.419c-5.521-0.207-10.167,4.083-10.382,9.603
			c-0.216,5.518,4.083,10.167,9.602,10.382c27.431,1.072,51.499,9.767,71.706,25.839c-3.039,3.531-5.963,7.227-8.758,11.074
			c-29.003-14.832-60.755-19.265-94.528-13.155c-5.435,0.983-9.043,6.186-8.06,11.62c0.983,5.435,6.189,9.044,11.62,8.06
			c28.629-5.178,55.524-1.671,80.1,10.404c-2.292,4.057-4.414,8.177-6.348,12.342c-18.224-3.479-36.459-1.126-54.326,7.052
			c-5.022,2.298-7.229,8.232-4.931,13.254c1.681,3.673,5.307,5.841,9.099,5.841c1.392,0,2.807-0.292,4.155-0.91
			c12.723-5.823,25.633-7.877,38.507-6.179c-4.376,13.582-6.718,27.137-6.718,39.728c0,10.408,1.536,19.911,4.576,28.495
			c-63.992-36.572-103.62-98.983-103.62-167.135C25.999,177.243,129.177,87.523,256,87.523s230.002,89.72,230.002,200.002
			C486.002,355.678,446.375,418.086,382.383,454.658z"/>
	</g>
</g>
<g>
	<g>
		<path d="M357.782,224.961c-7.759-13.886-22.273-22.513-37.878-22.513c-15.605,0-30.12,8.627-37.879,22.514
			c-2.694,4.821-0.97,10.914,3.852,13.607c4.821,2.693,10.914,0.97,13.607-3.853c4.228-7.568,12.053-12.269,20.42-12.269
			c8.366,0,16.19,4.701,20.419,12.269c1.831,3.278,5.232,5.124,8.738,5.124c1.651,0,3.325-0.41,4.869-1.272
			C358.751,235.874,360.476,229.782,357.782,224.961z"/>
	</g>
</g>
<g>
	<g>
		<path d="M229.976,224.963c-7.757-13.888-22.272-22.515-37.878-22.515c-15.606,0-30.12,8.627-37.879,22.514
			c-2.694,4.821-0.969,10.914,3.852,13.607c1.544,0.862,3.217,1.272,4.868,1.272c3.505,0,6.908-1.847,8.739-5.124
			c4.228-7.568,12.052-12.269,20.419-12.269s16.191,4.701,20.418,12.268c2.694,4.822,8.786,6.547,13.607,3.854
			C230.943,235.876,232.669,229.784,229.976,224.963z"/>
	</g>
</g>
<g>
</g>
<g>
</g>
<g>
</g>
<g>
</g>
<g>
</g>
<g>
</g>
<g>
</g>
<g>
</g>
<g>
</g>
<g>
</g>
<g>
</g>
<g>
</g>
<g>
</g>
<g>
</g>
<g>
</g>
</svg>
