<?xml version="1.0" encoding="iso-8859-1"?>
<!-- Generator: Adobe Illustrator 19.0.0, SVG Export Plug-In . SVG Version: 6.00 Build 0)  -->
<svg version="1.1" id="Capa_1" xmlns="http://www.w3.org/2000/svg" xmlns:xlink="http://www.w3.org/1999/xlink" x="0px" y="0px"
	 viewBox="0 0 511.999 511.999" style="enable-background:new 0 0 511.999 511.999;" xml:space="preserve">
<g>
	<g>
		<path d="M129.123,149.825c-3.271-4.438-9.559-5.361-14.005-2.098c-0.012,0.009-0.104,0.076-0.115,0.085
			c-4.432,3.282-5.329,9.502-2.057,13.94c1.954,2.65,4.984,4.047,8.055,4.047c2.07,0,4.16-0.635,5.95-1.949
			c0.012-0.009,0.104-0.076,0.115-0.085C131.498,160.483,132.395,154.263,129.123,149.825z"/>
	</g>
</g>
<g>
	<g>
		<path d="M464.441,165.907c11.326-48.42,6.334-123.516-17.909-152.722c-9.716-11.706-20.244-13.61-27.435-13.114
			c-36.017,1.369-95.004,46.204-114.638,71.561c-6.163-1.059-12.39-1.913-18.668-2.564c-0.045-0.005-0.09-0.009-0.135-0.014
			c-9.772-1.01-19.669-1.532-29.657-1.532c-16.452,0-32.662,1.395-48.461,4.11C187.904,46.274,128.918,1.439,92.901,0.07
			c-7.188-0.496-17.719,1.408-27.435,13.114C41.223,42.393,36.23,117.486,47.558,165.907c-27.036,35.729-41.56,77.67-41.56,121.616
			c0,88.148,59.318,167.365,151.232,202.158c2.684,1.822,5.524,3.542,8.54,5.147c21.404,11.394,51.763,17.171,90.231,17.171
			s68.825-5.777,90.229-17.171c3.015-1.605,5.854-3.325,8.538-5.147c91.915-34.792,151.234-114.008,151.234-202.158
			C506.002,243.577,491.478,201.635,464.441,165.907z M419.973,20.052c0.145-0.005,0.288-0.013,0.432-0.023
			c1.348-0.106,5.466-0.423,10.739,5.93c16.339,19.684,23.33,75.566,16.673,120.428c-4.379-4.592-8.99-9.048-13.827-13.361
			c1.759-50.752-5.008-75.897-22.381-83.738c-16.152-7.29-36.8,2.28-68.478,31.918c-5.411-1.767-10.895-3.368-16.444-4.8
			C347.787,54.371,394.794,20.894,419.973,20.052z M414.252,117.161c-15.484-11.175-32.277-20.569-50.045-28.083
			c26.35-23.158,36.057-22.969,39.175-21.562C406.845,69.079,414.105,77.155,414.252,117.161z M461.29,197.404
			C346.973,175.177,314.937,123.673,300.669,91.32C370.937,103.395,429.802,143.385,461.29,197.404z M256,87.522
			c7.346-0.001,14.608,0.314,21.781,0.902c6.789,16.801,18.165,44.689,47.328,70.59c33.543,29.788,83.071,50.19,147.264,60.682
			c3.931,9.451,7.058,19.232,9.323,29.279c-133.608-2.588-220.115-48.357-257.785-136.263c-0.096-0.256-0.204-0.504-0.319-0.748
			c-2.914-6.87-5.542-13.987-7.862-21.369C228.811,88.577,242.266,87.522,256,87.522z M80.854,25.959
			c5.271-6.351,9.389-6.036,10.739-5.931c0.144,0.011,0.287,0.019,0.432,0.023c25.178,0.842,72.186,34.318,93.286,56.354
			c-5.549,1.432-11.032,3.033-16.443,4.8C137.189,51.567,116.541,42,100.39,49.287c-17.373,7.841-24.139,32.987-22.38,83.738
			c-4.837,4.313-9.448,8.77-13.827,13.362C57.524,101.524,64.515,45.644,80.854,25.959z M147.792,89.078
			c-17.768,7.514-34.561,16.908-50.043,28.083c0.146-40.006,7.405-48.081,10.868-49.645
			C111.732,66.107,121.444,65.921,147.792,89.078z M344.773,472.286c-0.327,0.202-0.638,0.423-0.935,0.658
			C327.961,483.784,301.18,492,256.001,492c-45.177,0-71.958-8.215-87.837-19.054c-0.298-0.236-0.61-0.458-0.939-0.661
			c-22.172-15.713-22.184-36.602-22.184-46.121c0-38.316,27.318-90.864,68.939-114.19c2.779,4.991,6.731,9.736,11.773,14.013
			c6.246,5.298,13.358,9.161,20.248,11.151v34.784c-9.688,2.694-18.137,9.233-23.245,18.367c-2.696,4.82-0.974,10.913,3.847,13.608
			c4.821,2.697,10.914,0.973,13.608-3.847c3.276-5.858,9.326-9.497,15.79-9.497c6.463,0,12.512,3.639,15.787,9.496
			c1.832,3.276,5.232,5.122,8.737,5.122c1.652,0,3.327-0.41,4.871-1.273c4.821-2.695,6.544-8.788,3.849-13.608
			c-5.107-9.136-13.557-15.674-23.244-18.368v-34.784c6.89-1.991,14.002-5.854,20.248-11.151c5.041-4.276,8.993-9.022,11.772-14.013
			c9.902,5.55,18.99,12.752,27.098,21.026c0.001,0.002,0.002,0.003,0.004,0.005c0.003,0.003,0.006,0.005,0.009,0.008
			c25.959,26.502,41.826,63.956,41.826,93.151C366.959,435.683,366.947,456.573,344.773,472.286z M229.26,294.738
			c0-3.564,0-13.034,26.74-13.034c26.739,0,26.739,9.47,26.739,13.034c0,11.627-17.387,23.926-26.739,23.926
			C246.648,318.664,229.26,306.365,229.26,294.738z M382.381,454.659c3.04-8.585,4.576-18.087,4.576-28.495
			c0-12.591-2.342-26.146-6.718-39.729c12.874-1.697,25.783,0.358,38.507,6.179c1.349,0.617,2.763,0.91,4.155,0.91
			c3.791-0.001,7.418-2.168,9.099-5.842c2.299-5.021,0.091-10.956-4.932-13.254c-17.866-8.177-36.102-10.528-54.325-7.052
			c-1.935-4.164-4.057-8.285-6.349-12.342c24.575-12.075,51.471-15.583,80.1-10.403c5.439,0.978,10.637-2.627,11.621-8.061
			c0.982-5.436-2.626-10.638-8.061-11.621c-33.772-6.105-65.525-1.677-94.529,13.155c-2.795-3.847-5.719-7.542-8.758-11.073
			c20.206-16.073,44.274-24.768,71.705-25.839c5.52-0.215,9.818-4.863,9.602-10.382c-0.21-5.387-4.643-9.61-9.985-9.61
			c-0.132,0-0.265,0.002-0.397,0.008c-32.539,1.269-61.072,11.831-84.956,31.418c-9.42-8.515-19.572-15.565-30.123-20.852
			c-1.011-12.418-9.054-30.069-46.614-30.069c-37.56,0-45.605,17.651-46.615,30.068c-10.551,5.287-20.703,12.338-30.123,20.853
			c-23.883-19.588-52.417-30.149-84.957-31.419c-5.511-0.257-10.167,4.084-10.382,9.602c-0.216,5.519,4.083,10.167,9.603,10.382
			c27.431,1.071,51.5,9.766,71.705,25.839c-3.039,3.531-5.963,7.227-8.758,11.073c-29.004-14.832-60.756-19.262-94.529-13.155
			c-5.435,0.983-9.043,6.186-8.061,11.621c0.983,5.434,6.183,9.041,11.621,8.061c28.624-5.181,55.523-1.672,80.1,10.403
			c-2.292,4.057-4.413,8.178-6.348,12.342c-18.224-3.477-36.459-1.127-54.326,7.052c-5.022,2.298-7.23,8.232-4.932,13.254
			c1.681,3.674,5.308,5.842,9.099,5.842c1.393,0,2.807-0.293,4.155-0.91c12.724-5.821,25.634-7.876,38.507-6.179
			c-4.376,13.582-6.718,27.138-6.718,39.729c0,10.407,1.536,19.91,4.576,28.494c-63.992-36.57-103.618-98.98-103.618-167.134
			c0-92.233,72.178-170.071,169.991-193.082c1.494,4.883,3.116,9.669,4.857,14.361c-21.133,4.819-41.348,12.421-60.234,22.687
			c-4.852,2.638-6.648,8.71-4.01,13.563c1.813,3.335,5.248,5.226,8.795,5.226c1.613,0,3.25-0.392,4.768-1.216
			c18.287-9.941,37.948-17.158,58.54-21.513c14.702,31.319,35.521,57.765,62.226,78.926c50.813,40.268,122.806,61.3,214.08,62.564
			c0.645,6.089,0.991,12.252,0.991,18.484C486.001,355.677,446.375,418.087,382.381,454.659z"/>
	</g>
</g>
<g>
	<g>
		<path d="M226.123,203.716c-4.821-2.692-10.914-0.968-13.607,3.854c-4.227,7.568-12.051,12.27-20.418,12.27
			c-8.367,0-16.191-4.701-20.419-12.27c-2.694-4.822-8.789-6.546-13.607-3.854c-4.821,2.694-6.547,8.786-3.853,13.607
			c7.759,13.889,22.273,22.516,37.88,22.516c15.606,0,30.121-8.628,37.879-22.516C232.67,212.501,230.944,206.409,226.123,203.716z"
			/>
	</g>
</g>
<g>
</g>
<g>
</g>
<g>
</g>
<g>
</g>
<g>
</g>
<g>
</g>
<g>
</g>
<g>
</g>
<g>
</g>
<g>
</g>
<g>
</g>
<g>
</g>
<g>
</g>
<g>
</g>
<g>
</g>
</svg>
