<?xml version="1.0" encoding="iso-8859-1"?>
<!-- Generator: Adobe Illustrator 19.0.0, SVG Export Plug-In . SVG Version: 6.00 Build 0)  -->
<svg version="1.1" id="Capa_1" xmlns="http://www.w3.org/2000/svg" xmlns:xlink="http://www.w3.org/1999/xlink" x="0px" y="0px"
	 viewBox="0 0 512.001 512.001" style="enable-background:new 0 0 512.001 512.001;" xml:space="preserve">
<g>
	<g>
		<path d="M366.137,203.382l-57.475-57.475c-5.646-5.645-13.174-8.756-21.197-8.756c-8.021,0-15.549,3.109-21.196,8.756
			L145.866,266.31c-5.646,5.646-8.756,13.174-8.756,21.196c0,8.022,3.109,15.55,8.756,21.197l57.475,57.475
			c5.645,5.645,13.173,8.756,21.196,8.756s15.55-3.109,21.196-8.756l120.404-120.403
			C377.823,234.088,377.823,215.07,366.137,203.382z M352.005,231.645L231.603,352.046c-1.872,1.871-4.381,2.904-7.065,2.904
			c-2.685,0-5.194-1.031-7.065-2.903l-57.476-57.475c-1.871-1.871-2.903-4.38-2.903-7.064c0-2.684,1.031-5.194,2.903-7.065
			L280.4,160.039c1.871-1.871,4.38-2.903,7.064-2.903c2.686,0,5.194,1.031,7.065,2.903l57.476,57.474
			C355.9,221.409,355.901,227.749,352.005,231.645z"/>
	</g>
</g>
<g>
	<g>
		<path d="M473.978,290.131l-34.088-34.088l34.089-34.088c24.465-24.465,37.939-57.119,37.939-91.945
			c0-34.825-13.474-67.479-37.94-91.944c-24.465-24.465-57.118-37.94-91.945-37.94c-34.825,0-67.479,13.474-91.945,37.94
			l-34.088,34.088l-34.089-34.088c-50.697-50.698-133.191-50.698-183.888,0C13.558,62.531,0.085,95.186,0.085,130.01
			c0,34.826,13.473,67.479,37.939,91.945l34.088,34.088l-34.088,34.088c-50.698,50.698-50.698,133.192,0,183.889
			c24.465,24.465,57.118,37.939,91.944,37.939s67.479-13.473,91.945-37.939l34.089-34.089l34.088,34.088
			c24.465,24.465,57.118,37.94,91.945,37.94c34.825,0,67.479-13.474,91.945-37.94C524.676,423.319,524.676,340.829,473.978,290.131z
			 M52.154,207.823c-20.691-20.69-32.086-48.324-32.086-77.813c0-29.488,11.395-57.122,32.086-77.813
			c42.907-42.908,112.721-42.908,155.628,0l34.088,34.088L86.243,241.912L52.154,207.823z M207.783,459.888
			c-20.691,20.691-48.326,32.086-77.814,32.086c-29.488,0-57.122-11.395-77.813-32.086c-42.906-42.906-42.906-112.721,0-155.627
			L263.064,93.352c0.001-0.001,0.002-0.001,0.003-0.002c0.001-0.001,0.001-0.002,0.002-0.003l41.152-41.15
			c20.691-20.692,48.325-32.087,77.813-32.087c29.488,0,57.122,11.395,77.814,32.087c42.907,42.906,42.907,112.721,0,155.626
			c-0.004,0.003-34.98,34.979-40.442,40.441c4.806-4.806,32.455-32.455,39.035-39.034L207.783,459.888z M458.512,209.16
			c0.23-0.23,0.434-0.434,0.608-0.608L458.512,209.16z M459.847,459.887c-20.691,20.692-48.325,32.087-77.813,32.087
			c-29.489,0-57.123-11.395-77.813-32.087l-34.088-34.088l155.626-155.626l34.088,34.088
			C502.755,347.168,502.755,416.982,459.847,459.887z"/>
	</g>
</g>
<g>
	<g>
		<path d="M85.86,116.543c-17.863,0-32.395,14.631-32.395,32.616c0,17.984,14.532,32.616,32.395,32.616s32.396-14.631,32.396-32.616
			C118.256,131.175,103.723,116.543,85.86,116.543z M85.86,161.791c-6.844,0-12.412-5.666-12.412-12.633s5.567-12.633,12.412-12.633
			c6.844,0,12.413,5.666,12.413,12.633C98.272,156.125,92.704,161.791,85.86,161.791z"/>
	</g>
</g>
<g>
	<g>
		<path d="M148.017,52.184c-17.863,0-32.396,14.632-32.396,32.616c0,17.984,14.533,32.616,32.396,32.616
			s32.396-14.632,32.396-32.616C180.413,66.816,165.88,52.184,148.017,52.184z M148.017,97.432c-6.844,0-12.413-5.666-12.413-12.633
			s5.568-12.633,12.413-12.633c6.844,0,12.413,5.666,12.413,12.633S154.861,97.432,148.017,97.432z"/>
	</g>
</g>
<g>
	<g>
		<path d="M426.142,330.31c-17.863,0-32.396,14.631-32.396,32.616c0,17.985,14.533,32.617,32.396,32.617
			c17.862,0,32.395-14.632,32.395-32.617C458.538,344.941,444.005,330.31,426.142,330.31z M426.142,375.559
			c-6.844,0-12.413-5.667-12.413-12.634s5.568-12.633,12.413-12.633c6.844,0,12.412,5.666,12.412,12.633
			S432.986,375.559,426.142,375.559z"/>
	</g>
</g>
<g>
	<g>
		<path d="M363.985,394.669c-17.862,0-32.395,14.632-32.395,32.616c0,17.985,14.533,32.616,32.395,32.616
			c17.863,0,32.396-14.631,32.396-32.616C396.382,409.3,381.849,394.669,363.985,394.669z M363.985,439.918
			c-6.844,0-12.412-5.667-12.412-12.633c0-6.966,5.567-12.633,12.412-12.633c6.844,0,12.413,5.666,12.413,12.633
			C376.398,434.25,370.83,439.918,363.985,439.918z"/>
	</g>
</g>
<g>
	<g>
		<path d="M379.61,157.801l-46.598-46.598c-3.903-3.901-10.228-3.901-14.131,0c-3.902,3.902-3.902,10.229,0,14.131l46.599,46.598
			c1.951,1.95,4.508,2.927,7.065,2.927c2.557,0,5.114-0.976,7.065-2.927C383.511,168.031,383.511,161.704,379.61,157.801z"/>
	</g>
</g>
<g>
	<g>
		<path d="M400.825,179.015l-0.229-0.229c-3.91-3.894-10.238-3.881-14.13,0.03c-3.894,3.91-3.881,10.237,0.03,14.13l0.229,0.229
			c1.949,1.941,4.499,2.912,7.05,2.912c2.564,0,5.129-0.981,7.08-2.942C404.749,189.235,404.736,182.909,400.825,179.015z"/>
	</g>
</g>
<g>
	<g>
		<path d="M125.523,319.152l-0.229-0.229c-3.902-3.901-10.228-3.901-14.13,0c-3.902,3.902-3.902,10.229,0,14.13l0.229,0.23
			c1.951,1.95,4.508,2.927,7.065,2.927c2.557,0,5.114-0.976,7.065-2.927C129.425,329.381,129.425,323.055,125.523,319.152z"/>
	</g>
</g>
<g>
	<g>
		<path d="M193.121,386.749l-46.598-46.598c-3.902-3.901-10.228-3.901-14.13,0c-3.902,3.902-3.902,10.229,0,14.131l46.598,46.598
			c1.951,1.95,4.508,2.927,7.065,2.927s5.114-0.976,7.065-2.927C197.022,396.979,197.022,390.652,193.121,386.749z"/>
	</g>
</g>
<g>
</g>
<g>
</g>
<g>
</g>
<g>
</g>
<g>
</g>
<g>
</g>
<g>
</g>
<g>
</g>
<g>
</g>
<g>
</g>
<g>
</g>
<g>
</g>
<g>
</g>
<g>
</g>
<g>
</g>
</svg>
