<?xml version="1.0" encoding="iso-8859-1"?>
<!-- Generator: Adobe Illustrator 19.0.0, SVG Export Plug-In . SVG Version: 6.00 Build 0)  -->
<svg version="1.1" id="Capa_1" xmlns="http://www.w3.org/2000/svg" xmlns:xlink="http://www.w3.org/1999/xlink" x="0px" y="0px"
	 viewBox="0 0 512 512" style="enable-background:new 0 0 512 512;" xml:space="preserve">
<g>
	<g>
		<path d="M490.363,89.652l-81.481-40.189c-7.637-15.651-21.856-29.077-40.462-38.079C348.693,1.841,325.673-1.883,303.6,0.899
			c-26.434,3.331-50.17,15.611-68.643,35.512c-21.283,22.928-35.018,54.992-40.822,95.302c-0.493,3.425-1.025,6.878-1.573,10.323
			c-21.894,13.767-41.449,37.569-51.998,74.754c-19.304,68.043-56.421,85.554-80.983,97.142
			c-9.237,4.357-17.214,8.121-22.793,13.655c-4.75,4.713-6.237,10.936-3.979,16.645c3.067,7.756,12.334,13.349,29.162,17.6
			c10.656,2.692,23.904,4.617,38.178,5.596c-3.574,5.626-6.894,10.392-10.033,14.773l-49.689,69.37
			c-0.014,0.019-0.027,0.038-0.041,0.057l-22.452,31.345c-1.833,2.558-2.353,5.83-1.407,8.83c0.947,3.001,3.251,5.382,6.22,6.424
			c26.273,9.231,54.042,13.774,81.354,13.773c39.218-0.001,77.485-9.373,108.956-27.687c33.519-19.506,55.886-47.527,63.576-79.401
			c16.559-5.358,32.207-12.211,46.369-20.41c25.104-14.533,45.028-32.773,59.218-54.212c15.797-23.867,24.045-51.117,24.516-80.992
			c0.613-38.93,3.878-77.835,6.591-108.031l76.618-33.488c3.564-1.559,5.901-5.042,5.99-8.931
			C496.025,94.961,493.851,91.374,490.363,89.652z M55.124,338.616c3.419-2.086,7.977-4.237,12.988-6.601
			c26.144-12.335,69.901-32.978,91.686-109.767c15.833-55.812,54.647-75.697,85.69-75.697c20.476,0,39.881,8.189,53.238,22.467
			c13.745,14.691,20.246,34.509,18.81,57.327c-6.204,42.429-30.766,74.704-73.006,95.92c-44.876,22.541-95.95,25.907-122.403,25.907
			c-0.002,0-0.004,0-0.005,0c-1.572,0-3.145-0.014-4.715-0.037c-0.003,0-0.007,0-0.01,0c-1.392-0.021-2.779-0.049-4.151-0.087
			C83.346,347.209,63.549,342.394,55.124,338.616z M101.376,400.815c15.379,7.245,33.277,12.354,52.783,15.148
			c-15.808,23.709-51.974,37.845-88.237,34.347L101.376,400.815z M203,467.032c-44.965,26.167-105.476,32.123-160.801,16.4
			l10.596-14.793c8.111,1.5,16.262,2.229,24.313,2.229c43.197,0,83.457-20.717,98.774-52.779c4.688,0.25,9.439,0.382,14.246,0.382
			c4.404,0,8.857-0.105,13.345-0.319c17.029-0.811,33.947-3.168,50.279-6.928C245.234,433.236,227.679,452.67,203,467.032z
			 M394.192,130.845c-0.083,0.91-0.166,1.831-0.25,2.76c-0.001,0.016-0.003,0.031-0.004,0.047
			c-2.827,31.233-6.529,73.119-7.194,115.332c-0.993,62.986-40.659,99.05-73.76,118.213c-14.497,8.394-30.496,15.132-47.191,20.201
			c-0.429,0.101-0.846,0.236-1.255,0.391c-30.106,8.97-62.417,12.475-92.314,10.255c-1.326-0.393-2.67-0.498-3.971-0.347
			c-20.07-1.848-38.95-6.297-55.19-13.477c3.135-4.675,6.46-9.923,10.023-16.058c28.486-0.082,82.395-3.91,130.417-28.032
			c22.434-11.269,40.813-25.674,54.626-42.815c15.682-19.462,25.523-42.512,29.252-68.511c0.036-0.251,0.063-0.503,0.079-0.755
			c1.909-28.64-6.437-53.776-24.135-72.692c-17.125-18.304-41.851-28.802-67.839-28.802c-9.962,0-20.557,1.605-31.113,5.14
			c10.078-64.476,43.389-104.869,91.724-110.959c36.944-4.654,74.691,12.893,85.933,39.952c3.547,8.538,5.347,17.487,5.347,26.6
			C397.378,95.685,395.973,111.202,394.192,130.845z M415.37,118.554c1.185-13.495,2.003-24.259,2.003-31.264
			c0-3.943-0.284-7.858-0.802-11.738l45.659,22.52L415.37,118.554z"/>
	</g>
</g>
<g>
	<g>
		<path d="M212.989,309.032c-1.594-5.287-7.175-8.282-12.457-6.686c-0.012,0.003-0.111,0.033-0.123,0.037l-0.058,0.018
			c-5.289,1.579-8.302,7.146-6.726,12.435c1.294,4.339,5.267,7.146,9.574,7.146c0.943,0,1.901-0.134,2.851-0.417l0.252-0.076
			C211.589,319.895,214.583,314.319,212.989,309.032z"/>
	</g>
</g>
<g>
	<g>
		<path d="M294.195,213.892c-5.455-0.855-10.569,2.876-11.423,8.332c-4.702,30.051-23.048,53.324-54.53,69.174
			c-4.932,2.482-6.917,8.493-4.434,13.425c1.757,3.489,5.279,5.504,8.937,5.504c1.512,0,3.046-0.344,4.488-1.07
			c37.041-18.648,59.62-47.676,65.294-83.942C303.38,219.859,299.65,214.746,294.195,213.892z"/>
	</g>
</g>
<g>
	<g>
		<path d="M355.35,81.17c-3.466-13.965-15.327-23.353-30.955-24.5c-16.679-1.228-31.689,7.224-37.356,21.021
			c-2.097,5.107,0.342,10.948,5.449,13.047c5.109,2.097,10.948-0.342,13.047-5.449c2.727-6.639,10.935-9.147,17.398-8.679
			c3.272,0.24,11.091,1.635,13.012,9.375c1.129,4.551,5.209,7.592,9.695,7.592c0.797,0,1.608-0.096,2.416-0.297
			C353.414,91.951,356.68,86.528,355.35,81.17z"/>
	</g>
</g>
<g>
</g>
<g>
</g>
<g>
</g>
<g>
</g>
<g>
</g>
<g>
</g>
<g>
</g>
<g>
</g>
<g>
</g>
<g>
</g>
<g>
</g>
<g>
</g>
<g>
</g>
<g>
</g>
<g>
</g>
</svg>
