<?xml version="1.0" encoding="iso-8859-1"?>
<!-- Generator: Adobe Illustrator 19.0.0, SVG Export Plug-In . SVG Version: 6.00 Build 0)  -->
<svg version="1.1" id="Capa_1" xmlns="http://www.w3.org/2000/svg" xmlns:xlink="http://www.w3.org/1999/xlink" x="0px" y="0px"
	 viewBox="0 0 511.998 511.998" style="enable-background:new 0 0 511.998 511.998;" xml:space="preserve">
<g>
	<g>
		<path d="M385.998,151.998h-20v-10c0-16.542-13.458-30-30-30h-68.006V69.587h70.382l8.787,17.468
			c11.109,22.084,31.518,24.874,45.779,18.119c15.633-7.405,22.398-24.279,15.736-39.251l-19.3-43.375
			c-3.716-8.351-7.784-16.161-16.629-19.946c-6.777-2.899-14.485-2.734-27.251-2.466L136.737,0.172
			c-13.189,0-24.874,6.663-31.257,17.824c-6.213,10.864-6.33,23.973-0.306,34.21c3.842,6.529,13.547,17.386,35.595,17.384
			c0.256,0,0.519-0.001,0.778-0.004l59.659,0.009v42.403h-25.207c-16.542,0-30,13.458-30,30v10h-20c-16.542,0-30,13.458-30,30
			v300.001c0,16.541,13.458,29.999,30,29.999h260c16.542,0,30-13.458,30-29.999V181.998
			C415.998,165.456,402.54,151.998,385.998,151.998z M141.49,49.586c-0.042,0-0.083,0-0.126,0.001
			c-9.268,0.104-16.031-2.556-18.954-7.523c-2.358-4.008-2.189-9.558,0.431-14.139c1.656-2.896,5.663-7.753,13.896-7.753h207.152
			c0.069,0,0.138-0.001,0.207-0.002l1.825-0.039c9.379-0.199,16.154-0.343,18.958,0.858c1.228,0.525,2.832,2.063,6.226,9.69
			l19.3,43.375c2.962,6.658-2.646,11.444-6.025,13.045c-2.805,1.33-12.491,4.606-19.352-9.032l-11.557-22.974
			c-1.698-3.376-5.154-5.506-8.933-5.506h-86.546c-5.523,0-10,4.478-10,10v52.411h-26.787V59.597c0-5.523-4.476-10-9.998-10
			L141.49,49.586z M165.998,141.998c0-5.514,4.486-10,10-10h160c5.514,0,10,4.486,10,10v10h-180V141.998z M395.998,481.999
			c0,5.514-4.485,9.999-10,9.999h-260c-5.514,0-10-4.485-10-9.999v-6.563h280V481.999z M395.998,455.436h-280V248.561h280V455.436z
			 M395.998,228.561h-280v-17.502h55.953c5.523,0,10-4.477,10-10c0-5.522-4.477-10-10-10h-55.953v-9.061c0-5.514,4.486-10,10-10h260
			c5.514,0,10,4.486,10,10V228.561z"/>
	</g>
</g>
<g>
	<g>
		<path d="M314.488,320.065h-26.556V293.51c0-5.522-4.477-10-10-10h-43.867c-5.523,0-10,4.478-10,10v26.555H197.51
			c-5.523,0-10,4.478-10,10v43.867c0,5.522,4.477,10,10,10h26.555v26.556c0,5.522,4.477,10,10,10h43.867c5.523,0,10-4.478,10-10
			v-26.556h26.556c5.523,0,10-4.478,10-10v-43.867C324.488,324.543,320.011,320.065,314.488,320.065z M304.488,363.933h-26.556
			c-5.523,0-10,4.478-10,10v26.556h-23.867v-26.556c0-5.522-4.477-10-10-10H207.51v-23.867h26.555c5.523,0,10-4.477,10-10v-26.555
			h23.867v26.555c0,5.523,4.477,10,10,10h26.556V363.933z"/>
	</g>
</g>
<g>
	<g>
		<path d="M201.998,191.059h-0.324c-5.523,0-10,4.478-10,10c0,5.523,4.477,10,10,10h0.324c5.523,0,10-4.477,10-10
			C211.998,195.537,207.521,191.059,201.998,191.059z"/>
	</g>
</g>
<g>
</g>
<g>
</g>
<g>
</g>
<g>
</g>
<g>
</g>
<g>
</g>
<g>
</g>
<g>
</g>
<g>
</g>
<g>
</g>
<g>
</g>
<g>
</g>
<g>
</g>
<g>
</g>
<g>
</g>
</svg>
