<?xml version="1.0" encoding="iso-8859-1"?>
<!-- Generator: Adobe Illustrator 19.0.0, SVG Export Plug-In . SVG Version: 6.00 Build 0)  -->
<svg version="1.1" id="Capa_1" xmlns="http://www.w3.org/2000/svg" xmlns:xlink="http://www.w3.org/1999/xlink" x="0px" y="0px"
	 viewBox="0 0 512.002 512.002" style="enable-background:new 0 0 512.002 512.002;" xml:space="preserve">
<g>
	<g>
		<path d="M366.19,161.02h-1.074v-44.404c0-11.358-9.239-20.597-20.597-20.597h-22.608V25.798C321.911,11.573,310.336,0,296.112,0
			h-80.221c-14.226,0-25.799,11.573-25.799,25.798v70.221h-22.608c-11.357,0-20.597,9.24-20.597,20.597v44.404h-1.073
			c-27.466,0-49.812,22.346-49.812,49.813V462.19c0,27.466,22.346,49.812,49.812,49.812H366.19
			c27.466,0,49.811-22.345,49.811-49.812V210.833C416,183.366,393.656,161.02,366.19,161.02z M215.891,20h80.221
			c3.143,0,5.799,2.655,5.799,5.798V48.01h-26c-5.522,0-10,4.477-10,10s4.478,10,10,10h26v28.009h-91.818V25.798h-0.001
			C210.091,22.655,212.747,20,215.891,20z M166.886,116.616c0-0.307,0.29-0.597,0.597-0.597h177.035c0.307,0,0.597,0.29,0.597,0.597
			v44.404H166.886V116.616z M396.001,452.19h-55.952c-5.522,0-10,4.477-10,10s4.478,10,10,10h54.222
			c-4.12,11.533-15.15,19.812-28.081,19.812H145.813c-16.439,0-29.812-13.374-29.812-29.812V220.833h55.952c5.523,0,10-4.477,10-10
			c0-5.523-4.477-10-10-10h-54.222c4.12-11.534,15.15-19.813,28.082-19.813H366.19c16.439,0,29.811,13.374,29.811,29.813V452.19z"/>
	</g>
</g>
<g>
	<g>
		<path d="M256,325.352c-29.403,0-53.324,24.001-53.324,53.501s23.921,53.5,53.324,53.5s53.325-24,53.325-53.5
			C309.326,349.352,285.404,325.352,256,325.352z M256,412.353c-18.375,0-33.324-15.028-33.324-33.5
			c0-18.473,14.949-33.501,33.324-33.501c18.376,0,33.325,15.028,33.325,33.501C289.326,397.325,274.377,412.353,256,412.353z"/>
	</g>
</g>
<g>
	<g>
		<path d="M319.956,270.186c-17.528,0-31.788,15.079-31.788,33.613c0,18.534,14.259,33.613,31.788,33.613
			c17.527,0,31.787-15.079,31.787-33.613S337.482,270.186,319.956,270.186z M319.956,317.412c-6.5,0-11.788-6.107-11.788-13.613
			c0-7.506,5.288-13.613,11.788-13.613c6.499,0,11.787,6.107,11.787,13.613C331.742,311.305,326.454,317.412,319.956,317.412z"/>
	</g>
</g>
<g>
	<g>
		<path d="M256.708,240.671c-17.528,0-31.788,15.079-31.788,33.613c0,18.533,14.259,33.612,31.788,33.612
			c17.527,0,31.787-15.079,31.787-33.612C288.495,255.75,274.234,240.671,256.708,240.671z M256.708,287.895
			c-6.5,0-11.788-6.107-11.788-13.612c0-7.506,5.288-13.613,11.788-13.613c6.499,0,11.787,6.107,11.787,13.613
			C268.495,281.789,263.206,287.895,256.708,287.895z"/>
	</g>
</g>
<g>
	<g>
		<path d="M192.049,270.186c-17.528,0-31.789,15.079-31.789,33.613s14.261,33.613,31.789,33.613
			c17.528,0,31.787-15.079,31.787-33.613S209.576,270.186,192.049,270.186z M192.049,317.412c-6.501,0-11.789-6.107-11.789-13.613
			c0-7.506,5.288-13.613,11.789-13.613c6.499,0,11.787,6.107,11.787,13.613C203.836,311.305,198.547,317.412,192.049,317.412z"/>
	</g>
</g>
<g>
	<g>
		<path d="M202,200.833h-0.324c-5.523,0-10,4.477-10,10c0,5.522,4.478,10,10,10H202c5.522,0,10-4.477,10-10
			C212,205.31,207.523,200.833,202,200.833z"/>
	</g>
</g>
<g>
	<g>
		<path d="M310.326,452.19h-0.324c-5.522,0-10,4.477-10,10s4.478,10,10,10h0.324c5.522,0,10-4.477,10-10
			C320.326,456.668,315.849,452.19,310.326,452.19z"/>
	</g>
</g>
<g>
</g>
<g>
</g>
<g>
</g>
<g>
</g>
<g>
</g>
<g>
</g>
<g>
</g>
<g>
</g>
<g>
</g>
<g>
</g>
<g>
</g>
<g>
</g>
<g>
</g>
<g>
</g>
<g>
</g>
</svg>
