<?xml version="1.0" encoding="iso-8859-1"?>
<!-- Generator: Adobe Illustrator 19.0.0, SVG Export Plug-In . SVG Version: 6.00 Build 0)  -->
<svg version="1.1" id="Capa_1" xmlns="http://www.w3.org/2000/svg" xmlns:xlink="http://www.w3.org/1999/xlink" x="0px" y="0px"
	 viewBox="0 0 512.002 512.002" style="enable-background:new 0 0 512.002 512.002;" xml:space="preserve">
<g>
	<g>
		<path d="M416.802,20h-51.088c-4.129-11.639-15.244-20-28.28-20H174.567c-13.036,0-24.151,8.361-28.279,20H95.199
			c-21.614,0-39.198,17.585-39.198,39.199v413.604c0,21.614,17.584,39.199,39.198,39.199h321.603
			c21.614,0,39.199-17.585,39.199-39.199V59.199C456.001,37.584,438.416,20,416.802,20z M164.567,30c0-5.514,4.487-10,10-10h162.866
			c5.514,0,10,4.486,10,10v15.888c0,5.514-4.486,10-10,10H174.567c-5.514,0-10-4.486-10-10V30z M416.802,492.002H95.199
			c-10.586,0-19.198-8.613-19.198-19.199V59.199C76.001,48.612,84.613,40,95.199,40h49.368v5.888c0,16.542,13.458,30,30,30h162.866
			c16.542,0,30-13.458,30-30V40h49.368C427.388,40,436,48.613,436,59.199v413.604h0.001
			C436.001,483.389,427.389,492.002,416.802,492.002z"/>
	</g>
</g>
<g>
	<g>
		<path d="M194.263,401.662c-3.953-3.859-10.284-3.781-14.141,0.171l-24.558,25.159l-4.683-4.683
			c-3.906-3.905-10.236-3.905-14.143,0c-3.905,3.905-3.905,10.237,0,14.142l11.84,11.84c1.876,1.876,4.42,2.929,7.071,2.929
			c0.02,0,0.04,0,0.061,0c2.673-0.016,5.229-1.102,7.096-3.015l31.628-32.402C198.291,411.851,198.215,405.52,194.263,401.662z"/>
	</g>
</g>
<g>
	<g>
		<path d="M306.002,118.793c-7.966,0-15.211,3.388-20.589,8.895c0.383-2.068,0.587-4.206,0.587-6.396
			c0-17.92-13.458-32.5-29.999-32.5c-16.542,0-30,14.58-30,32.5c0,2.189,0.204,4.327,0.586,6.396
			c-5.377-5.507-12.622-8.895-20.588-8.895c-16.542,0-30,14.58-30,32.5c0,17.921,13.458,32.501,30,32.501
			c1.996,0,3.945-0.217,5.833-0.622c-0.539,2.935-0.831,5.962-0.831,9.061c0,26.192,20.187,47.5,45,47.5c24.814,0,45-21.309,45-47.5
			c0-3.099-0.292-6.126-0.831-9.061c1.888,0.405,3.837,0.622,5.832,0.622c16.542,0,30-14.58,30-32.501
			C336.002,133.373,322.544,118.793,306.002,118.793z M205.999,163.794c-5.421,0-10-5.725-10-12.501s4.579-12.5,10-12.5
			c5.421,0,10,5.724,10,12.5S211.42,163.794,205.999,163.794z M276.589,144.898c-0.291,1.57-0.478,3.18-0.55,4.822
			c-1.05-0.554-2.124-1.064-3.218-1.531C274.159,147.203,275.416,146.099,276.589,144.898z M256.001,108.792
			c5.42,0,9.999,5.724,9.999,12.5s-4.579,12.5-9.999,12.5c-5.421,0-10-5.725-10-12.5
			C246.001,114.516,250.58,108.792,256.001,108.792z M239.181,148.189c-1.095,0.468-2.168,0.978-3.219,1.532
			c-0.072-1.643-0.259-3.253-0.549-4.823C236.585,146.099,237.842,147.203,239.181,148.189z M256.001,219.733
			c-13.785,0-25-12.336-25-27.5c0-15.163,11.215-27.5,25-27.5c13.785,0,25,12.337,25,27.5
			C281.001,207.397,269.786,219.733,256.001,219.733z M306.002,163.794c-5.421,0-10-5.725-10-12.501s4.579-12.5,10-12.5
			s10,5.724,10,12.5S311.423,163.794,306.002,163.794z"/>
	</g>
</g>
<g>
	<g>
		<path d="M368.191,349.082h-145.85c-5.522,0-10,4.477-10,10s4.478,10,10,10h145.851c5.522,0,10-4.477,10-10
			C378.191,353.559,373.714,349.082,368.191,349.082z"/>
	</g>
</g>
<g>
	<g>
		<path d="M194.263,341.66c-3.953-3.859-10.284-3.781-14.141,0.172l-24.558,25.159l-4.683-4.683c-3.906-3.905-10.236-3.905-14.143,0
			c-3.905,3.905-3.905,10.237,0,14.142l11.84,11.84c1.876,1.876,4.42,2.929,7.071,2.929c0.02,0,0.04,0,0.061-0.001
			c2.673-0.016,5.229-1.102,7.096-3.015l31.628-32.402C198.291,351.849,198.215,345.518,194.263,341.66z"/>
	</g>
</g>
<g>
	<g>
		<path d="M194.263,281.659c-3.953-3.86-10.284-3.782-14.141,0.171l-24.558,25.159l-4.683-4.683c-3.906-3.905-10.236-3.905-14.143,0
			c-3.905,3.905-3.905,10.237,0,14.142l11.84,11.84c1.876,1.876,4.42,2.929,7.071,2.929c0.02,0,0.04,0,0.061,0
			c2.673-0.016,5.229-1.102,7.096-3.015l31.628-32.402C198.291,291.848,198.215,285.517,194.263,281.659z"/>
	</g>
</g>
<g>
	<g>
		<path d="M288.293,409.084h-65.952c-5.522,0-10,4.477-10,10s4.478,10,10,10h65.952c5.522,0,10-4.477,10-10
			S293.815,409.084,288.293,409.084z"/>
	</g>
</g>
<g>
	<g>
		<path d="M318.34,409.084h-0.323c-5.522,0-10,4.477-10,10s4.478,10,10,10h0.323c5.522,0,10-4.477,10-10
			S323.862,409.084,318.34,409.084z"/>
	</g>
</g>
<g>
	<g>
		<path d="M368.191,289.08h-0.324c-5.522,0-10,4.477-10,10s4.478,10,10,10h0.324c5.522,0,10-4.477,10-10
			C378.191,293.557,373.714,289.08,368.191,289.08z"/>
	</g>
</g>
<g>
	<g>
		<path d="M338.144,289.08H222.341c-5.523,0-10,4.477-10,10c0,5.523,4.478,10,10,10h115.803c5.522,0,10-4.477,10-10
			S343.666,289.08,338.144,289.08z"/>
	</g>
</g>
<g>
</g>
<g>
</g>
<g>
</g>
<g>
</g>
<g>
</g>
<g>
</g>
<g>
</g>
<g>
</g>
<g>
</g>
<g>
</g>
<g>
</g>
<g>
</g>
<g>
</g>
<g>
</g>
<g>
</g>
</svg>
