<?xml version="1.0" encoding="iso-8859-1"?>
<!-- Generator: Adobe Illustrator 19.0.0, SVG Export Plug-In . SVG Version: 6.00 Build 0)  -->
<svg version="1.1" id="Capa_1" xmlns="http://www.w3.org/2000/svg" xmlns:xlink="http://www.w3.org/1999/xlink" x="0px" y="0px"
	 viewBox="0 0 512 512" style="enable-background:new 0 0 512 512;" xml:space="preserve">
<g>
	<g>
		<g>
			<path d="M475.936,198.262c-0.015-0.142-0.041-0.28-0.062-0.42c-0.025-0.183-0.047-0.366-0.083-0.547
				c-0.032-0.165-0.078-0.325-0.119-0.487c-0.039-0.154-0.072-0.309-0.118-0.461c-0.049-0.16-0.109-0.314-0.165-0.471
				c-0.055-0.151-0.104-0.304-0.166-0.453c-0.06-0.145-0.131-0.284-0.198-0.426c-0.072-0.154-0.141-0.31-0.222-0.461
				c-0.072-0.136-0.155-0.264-0.234-0.396c-0.088-0.148-0.172-0.298-0.268-0.443c-0.099-0.147-0.208-0.285-0.315-0.426
				c-0.089-0.12-0.172-0.243-0.268-0.359c-0.209-0.255-0.43-0.499-0.662-0.732c-0.001,0-0.002-0.001-0.002-0.001L298.194,17.437
				c-23.266-23.249-61.123-23.249-84.388,0L38.945,192.175c-0.009,0.009-0.016,0.019-0.025,0.028
				c-0.223,0.225-0.436,0.46-0.637,0.705c-0.099,0.12-0.185,0.247-0.277,0.371c-0.103,0.138-0.21,0.272-0.305,0.415
				c-0.097,0.145-0.181,0.295-0.27,0.444c-0.079,0.131-0.162,0.26-0.234,0.395c-0.08,0.15-0.148,0.305-0.22,0.458
				c-0.067,0.143-0.139,0.283-0.199,0.43c-0.062,0.148-0.111,0.299-0.165,0.45c-0.057,0.158-0.117,0.313-0.166,0.475
				c-0.045,0.15-0.079,0.303-0.117,0.455c-0.042,0.164-0.087,0.326-0.121,0.493c-0.036,0.178-0.057,0.358-0.083,0.538
				c-0.02,0.143-0.048,0.284-0.062,0.429c-0.032,0.328-0.05,0.658-0.05,0.988v0.001c0,0.011,0.001,0.021,0.001,0.031
				c0.001,0.319,0.017,0.637,0.048,0.955c0.014,0.145,0.042,0.285,0.062,0.427c0.025,0.18,0.047,0.361,0.083,0.54
				c0.032,0.163,0.077,0.322,0.118,0.483c0.039,0.156,0.073,0.312,0.12,0.466c0.047,0.158,0.106,0.309,0.162,0.464
				c0.055,0.154,0.106,0.309,0.168,0.46c0.06,0.144,0.13,0.282,0.196,0.422c0.073,0.156,0.142,0.313,0.224,0.465
				c0.072,0.133,0.153,0.26,0.23,0.39c0.089,0.15,0.175,0.303,0.273,0.45c0.093,0.139,0.197,0.27,0.296,0.403
				c0.095,0.127,0.184,0.258,0.286,0.382c0.179,0.218,0.371,0.426,0.567,0.628c0.032,0.033,0.06,0.069,0.092,0.102
				c0.009,0.009,0.019,0.017,0.028,0.025c0.225,0.223,0.459,0.436,0.704,0.637c0.121,0.1,0.249,0.186,0.374,0.279
				c0.137,0.102,0.27,0.208,0.413,0.304c0.145,0.097,0.295,0.181,0.444,0.27c0.131,0.078,0.26,0.161,0.395,0.233
				c0.151,0.081,0.306,0.149,0.459,0.221c0.143,0.067,0.282,0.138,0.428,0.199c0.149,0.062,0.302,0.111,0.453,0.166
				c0.156,0.056,0.31,0.116,0.471,0.165c0.151,0.046,0.305,0.079,0.458,0.118c0.164,0.041,0.325,0.087,0.492,0.12
				c0.176,0.035,0.353,0.056,0.53,0.081c0.146,0.021,0.289,0.048,0.437,0.063c0.328,0.032,0.658,0.05,0.987,0.05h38.631
				l27.393,162.76h-6.027c-16.541,0-29.998,13.457-29.998,29.998v39.997c0,16.541,13.457,29.998,29.998,29.998h49.997v9.999
				c0,16.542,13.457,29.999,29.998,29.999h139.991c16.541,0,29.998-13.457,29.998-29.999v-9.999h49.997
				c16.541,0,29.998-13.457,29.998-29.998v-39.997c0-16.541-13.457-29.998-29.998-29.998h-6.027l27.393-162.76h38.629
				c0.331,0,0.662-0.018,0.992-0.05c0.135-0.014,0.266-0.039,0.399-0.058c0.189-0.026,0.38-0.049,0.568-0.087
				c0.158-0.031,0.311-0.075,0.467-0.114c0.161-0.04,0.323-0.076,0.482-0.124c0.153-0.046,0.301-0.104,0.45-0.158
				c0.158-0.056,0.317-0.109,0.474-0.173c0.139-0.058,0.272-0.126,0.407-0.189c0.16-0.075,0.322-0.147,0.479-0.231
				c0.129-0.069,0.251-0.148,0.376-0.223c0.155-0.092,0.312-0.18,0.462-0.281c0.138-0.092,0.268-0.196,0.4-0.294
				c0.128-0.096,0.26-0.185,0.385-0.288c0.254-0.208,0.498-0.429,0.73-0.661c0,0,0-0.001,0.001-0.001
				c0.016-0.015,0.028-0.032,0.043-0.047c0.216-0.219,0.423-0.446,0.618-0.684c0.096-0.117,0.18-0.241,0.27-0.361
				c0.105-0.141,0.215-0.278,0.313-0.424c0.096-0.144,0.179-0.292,0.267-0.439c0.079-0.133,0.163-0.263,0.236-0.4
				c0.08-0.15,0.148-0.304,0.22-0.456c0.067-0.143,0.139-0.284,0.199-0.43c0.061-0.149,0.111-0.3,0.165-0.451
				c0.057-0.157,0.117-0.312,0.166-0.473c0.046-0.152,0.079-0.306,0.118-0.46c0.041-0.162,0.086-0.322,0.119-0.488
				c0.035-0.179,0.057-0.36,0.082-0.54c0.021-0.143,0.047-0.283,0.062-0.427c0.032-0.324,0.049-0.649,0.049-0.974
				c0-0.004,0.001-0.008,0.001-0.012C475.986,198.921,475.968,198.591,475.936,198.262z M111.635,249.124h66.885
				c-1.64,6.396-2.514,13.097-2.514,20c-0.001,6.903,0.873,13.603,2.513,20h-60.152L111.635,249.124z M256,349.402
				c29.602,0,55.48-16.232,69.313-40.281h64.953l-4.671,27.754h-27.492c-5.522,0-9.999,4.477-9.999,9.999s4.478,9.999,9.999,9.999
				h24.126l-2.547,15.135H132.316l-10.583-62.888h64.954C200.519,333.17,226.398,349.402,256,349.402z M196.004,269.123
				c0-33.239,26.914-60.281,59.996-60.281s59.996,27.042,59.996,60.281c0,33.239-26.914,60.281-59.996,60.281
				C222.918,329.404,196.004,302.362,196.004,269.123z M335.994,482.001c0,5.515-4.486,10-9.999,10H186.004
				c-5.514,0-9.999-4.486-9.999-10v-9.999h159.989V482.001z M405.546,392.007c-0.095,0-0.204,0-0.326,0c0.124,0,0.235,0,0.331,0
				h0.438c5.514,0,9.999,4.486,9.999,9.999v39.997c0,5.514-4.486,9.999-9.999,9.999H106.01c-5.514,0-9.999-4.486-9.999-9.999v-5.001
				h55.948c5.523,0,9.999-4.477,9.999-9.999s-4.477-9.999-9.999-9.999H96.01v-14.998c0-5.514,4.486-9.999,9.999-9.999H405.546z
				 M393.633,289.123h-60.152c1.641-6.396,2.514-13.097,2.514-20c0-6.903-0.873-13.603-2.514-20h66.885L393.633,289.123z
				 M403.731,229.125h-78.418c-13.833-24.048-39.712-40.281-69.313-40.281c-29.602,0-55.48,16.232-69.313,40.281h-78.418
				l-3.345-19.877h35.264c0.329,0,0.659-0.018,0.986-0.05c0.148-0.015,0.293-0.042,0.439-0.063c0.177-0.025,0.354-0.046,0.528-0.081
				c0.167-0.033,0.328-0.079,0.491-0.12c0.153-0.039,0.307-0.072,0.458-0.118c0.16-0.048,0.314-0.108,0.469-0.164
				c0.152-0.054,0.305-0.104,0.455-0.166c0.145-0.06,0.284-0.131,0.426-0.197c0.154-0.073,0.31-0.142,0.461-0.222
				c0.134-0.072,0.261-0.153,0.391-0.231c0.15-0.09,0.303-0.175,0.449-0.273c0.139-0.093,0.27-0.197,0.404-0.297
				c0.127-0.095,0.258-0.184,0.381-0.285c0.23-0.189,0.449-0.389,0.661-0.598c0.022-0.022,0.047-0.041,0.07-0.063L255.998,97.578
				l108.741,108.743c0.031,0.032,0.066,0.058,0.099,0.089c0.204,0.198,0.413,0.391,0.632,0.571c0.122,0.1,0.251,0.188,0.376,0.281
				c0.137,0.102,0.27,0.208,0.411,0.302c0.144,0.096,0.293,0.179,0.439,0.267c0.134,0.08,0.264,0.163,0.401,0.237
				c0.148,0.079,0.301,0.146,0.452,0.218c0.145,0.068,0.287,0.14,0.435,0.202c0.147,0.061,0.298,0.11,0.448,0.164
				c0.158,0.057,0.314,0.117,0.475,0.166c0.151,0.046,0.305,0.079,0.457,0.118c0.164,0.041,0.325,0.087,0.492,0.12
				c0.178,0.035,0.358,0.056,0.537,0.082c0.144,0.021,0.284,0.048,0.43,0.062c0.33,0.033,0.662,0.05,0.993,0.05h35.259
				L403.731,229.125z M375.954,189.25L263.071,76.365c-1.876-1.875-4.419-2.929-7.071-2.929c-2.652,0-5.196,1.054-7.071,2.929
				L136.045,189.25H70.167L227.942,31.584c15.47-15.461,40.644-15.461,56.116,0L441.833,189.25H375.954z"/>
			<path d="M404.34,392.007c0.172,0,0.334,0,0.482,0C404.674,392.007,404.513,392.007,404.34,392.007z"/>
			<path d="M403.199,392.007c0.211,0,0.414,0,0.606,0C403.613,392.007,403.411,392.007,403.199,392.007z"/>
			<path d="M393.793,392.008c1.046,0,2.162,0,3.277,0C395.955,392.008,394.839,392.008,393.793,392.008z"/>
			<path d="M401.113,392.008c0.505,0,0.988,0,1.44,0C402.101,392.007,401.618,392.007,401.113,392.008z"/>
			<path d="M390.335,392.008c0.193,0,0.395,0,0.607,0C390.73,392.008,390.527,392.008,390.335,392.008z"/>
			<path d="M388.589,392.008c0.096,0,0.206,0,0.331,0C388.796,392.008,388.685,392.008,388.589,392.008z"/>
			<path d="M389.318,392.008c0.149,0,0.31,0,0.482,0C389.628,392.008,389.467,392.008,389.318,392.008z"/>
			<path d="M397.905,392.008c0.834,0,1.658,0,2.443,0C399.563,392.008,398.739,392.008,397.905,392.008z"/>
			<path d="M391.587,392.008c0.452,0,0.935,0,1.441,0C392.523,392.008,392.04,392.008,391.587,392.008z"/>
		</g>
	</g>
</g>
<g>
	<g>
		<path d="M182.005,417.005h-0.324c-5.523,0-9.999,4.477-9.999,9.999s4.477,9.999,9.999,9.999h0.324
			c5.523,0,9.999-4.477,9.999-9.999C192.004,421.482,187.527,417.005,182.005,417.005z"/>
	</g>
</g>
<g>
	<g>
		<path d="M328.383,336.876h-0.324c-5.522,0-9.999,4.477-9.999,9.999s4.478,9.999,9.999,9.999h0.324
			c5.522,0,9.999-4.477,9.999-9.999S333.904,336.876,328.383,336.876z"/>
	</g>
</g>
<g>
</g>
<g>
</g>
<g>
</g>
<g>
</g>
<g>
</g>
<g>
</g>
<g>
</g>
<g>
</g>
<g>
</g>
<g>
</g>
<g>
</g>
<g>
</g>
<g>
</g>
<g>
</g>
<g>
</g>
</svg>
