<?xml version="1.0" encoding="iso-8859-1"?>
<!-- Generator: Adobe Illustrator 19.0.0, SVG Export Plug-In . SVG Version: 6.00 Build 0)  -->
<svg version="1.1" id="Capa_1" xmlns="http://www.w3.org/2000/svg" xmlns:xlink="http://www.w3.org/1999/xlink" x="0px" y="0px"
	 viewBox="0 0 512 512" style="enable-background:new 0 0 512 512;" xml:space="preserve">
<g>
	<g>
		<g>
			<path d="M469.394,498.656L424.387,371.89c-12.55-35.349-36.794-53.272-72.059-53.272h-38.711l-3.954-10.101
				c28.026-6.032,59.588-13.986,69.439-18.813c3.064-1.501,5.151-4.462,5.536-7.852c0.693-6.103,15.715-146.414-54.04-198.944
				l7.531-35.663c0.975-4.617-1.411-9.288-5.723-11.204l-79.158-35.18c-2.59-1.151-5.547-1.148-8.136,0.006l-74.77,33.364
				c-4.249,1.896-6.629,6.472-5.742,11.039l7.699,39.634c-53.133,46.016-56.765,129.893-56.575,155.088
				c0.081,10.797,0.811,20.756,2.109,28.798c2.085,12.919,4.999,16.684,7.837,18.828c0.065,0.049,0.13,0.097,0.196,0.145
				c12.305,8.833,42.454,16.433,74.138,23.443l-3.533,7.411h-39.889c-17.472-0.115-60.448,13.892-74.117,56.287l-39.953,123.92
				c-0.981,3.042-0.448,6.371,1.433,8.954c1.882,2.585,4.885,4.113,8.082,4.114L459.968,512c0,0,0.001,0,0.002,0
				c3.248,0,6.294-1.578,8.168-4.231C470.013,505.117,470.481,501.718,469.394,498.656z M249.196,20.946l67.692,30.084
				l-9.195,43.541H194.551l-8.802-45.313L249.196,20.946z M139.074,272.518c-2.33-7.099-5.999-36.828-0.377-74.118
				c4.185-27.759,14.267-64.16,38.29-90.205c1.47,3.787,5.139,6.376,9.32,6.376h129.495c4.727,0,8.808-3.31,9.784-7.934l0.314-1.484
				c45.557,44.127,41.283,143.383,39.382,168.563c-10.259,3.523-30.991,8.874-52.689,13.705
				c17.782-22.47,30.458-51.289,30.458-73.254l-0.008-46.039c-0.001-5.392-4.276-9.811-9.664-9.993
				c-36.904-1.241-63.013-8.523-99.772-27.83c-3.984-2.092-8.873-1.266-11.949,2.018c-16.018,17.103-27.244,21.672-50.831,25.968
				c-4.753,0.866-8.208,5.006-8.208,9.838c0,3.771-0.115,8.122-0.236,12.728c-0.478,18.104-1.02,38.606,3.886,53.173
				c4.584,16.816,13.971,37.813,27.993,55.393C173.616,284.68,148.85,278.318,139.074,272.518z M185.492,228.5
				c-0.06-0.22-0.127-0.438-0.201-0.653c-3.848-11.162-3.331-30.735-2.916-46.463c0.045-1.708,0.089-3.382,0.127-5.014
				c19.258-4.149,32.97-10.066,48.418-24.954c33.216,16.748,58.955,24.114,92.124,26.239l0.006,36.512
				c0.001,22.581-20.761,63.117-47.538,81.59c-7.969,5.286-16.169,8.365-22.598,8.493c-6.518-0.638-13.049-2.785-19.422-6.378
				c-0.036-0.021-0.069-0.045-0.106-0.066C209.568,284.272,192.169,253.246,185.492,228.5z M294.556,324.791l-39.528,26.55
				l-39.512-26.192l4.658-9.771c1.66,0.275,3.37,0.538,5.121,0.784c8.527,4.549,17.374,7.273,26.336,8.054
				c0.288,0.025,0.578,0.038,0.868,0.038c9.959,0,21.386-3.805,32.375-10.739c1.584-0.293,3.221-0.603,4.904-0.928L294.556,324.791z
				 M167.364,491.924v-43.316c0-5.523-4.477-10-10-10c-5.523,0-10,4.477-10,10v43.311l-81.605-0.021l35.743-110.854
				c10.343-32.08,44.16-42.425,54.905-42.425c0.037,0,0.074,0,0.11,0.001h43.121l49.902,33.079c1.675,1.11,3.6,1.665,5.525,1.665
				c1.945,0,3.89-0.567,5.576-1.699l49.199-33.045h42.489c26.623,0,43.532,12.699,53.212,39.964L445.809,492L167.364,491.924z"/>
			<path d="M235.342,71.882h4.604v4.604c0,5.523,4.477,10,10,10s10-4.477,10-10v-4.604h4.603c5.523,0,10-4.477,10-10
				s-4.477-10-10-10h-4.603v-4.604c0-5.523-4.477-10-10-10s-10,4.477-10,10v4.604h-4.604c-5.523,0-10,4.477-10,10
				C225.342,67.405,229.819,71.882,235.342,71.882z"/>
			<path d="M370.478,394.687h-16.771v-16.772c0-5.523-4.477-10-10-10H311.58c-5.523,0-10,4.477-10,10v16.772h-16.772
				c-5.523,0-10,4.477-10,10v32.126c0,5.523,4.477,10,10,10h16.772v16.773c0,5.523,4.477,10,10,10h32.127c5.523,0,10-4.477,10-10
				v-16.773h16.771c5.523,0,10-4.477,10-10v-32.126C380.478,399.164,376.001,394.687,370.478,394.687z M360.478,426.813h-16.771
				c-5.523,0-10,4.477-10,10v16.773H321.58v-16.773c0-5.523-4.477-10-10-10h-16.772v-12.126h16.772c5.523,0,10-4.477,10-10v-16.772
				h12.127v16.772c0,5.523,4.477,10,10,10h16.771V426.813z"/>
			<path d="M157.364,408.56c-5.523,0-10,4.477-10,10v0.324c0,5.523,4.477,10,10,10c5.523,0,10-4.477,10-10v-0.324
				C167.364,413.037,162.887,408.56,157.364,408.56z"/>
			<path d="M284.272,219.159c5.508,0,10.001-4.492,10.001-10c0-5.508-4.493-10-10.001-10s-10,4.492-10,10
				S278.764,219.159,284.272,219.159z"/>
			<path d="M225.272,219.159c5.508,0,10.001-4.492,10.001-10s-4.493-10-10.001-10s-10,4.492-10,10S219.764,219.159,225.272,219.159z
				"/>
		</g>
	</g>
</g>
<g>
</g>
<g>
</g>
<g>
</g>
<g>
</g>
<g>
</g>
<g>
</g>
<g>
</g>
<g>
</g>
<g>
</g>
<g>
</g>
<g>
</g>
<g>
</g>
<g>
</g>
<g>
</g>
<g>
</g>
</svg>
