<?xml version="1.0" encoding="iso-8859-1"?>
<!-- Generator: Adobe Illustrator 19.0.0, SVG Export Plug-In . SVG Version: 6.00 Build 0)  -->
<svg version="1.1" id="Capa_1" xmlns="http://www.w3.org/2000/svg" xmlns:xlink="http://www.w3.org/1999/xlink" x="0px" y="0px"
	 viewBox="0 0 512.003 512.003" style="enable-background:new 0 0 512.003 512.003;" xml:space="preserve">
<g>
	<g>
		<path d="M357.78,191.283c-7.758-13.887-22.273-22.514-37.879-22.514c-15.606,0-30.121,8.627-37.879,22.514
			c-2.692,4.821-0.967,10.913,3.854,13.607c4.823,2.693,10.914,0.968,13.607-3.853c4.228-7.567,12.052-12.268,20.419-12.268
			s16.19,4.701,20.418,12.268c1.832,3.278,5.233,5.125,8.739,5.125c1.65,0,3.325-0.41,4.868-1.272
			C358.748,202.196,360.473,196.104,357.78,191.283z"/>
	</g>
</g>
<g>
	<g>
		<path d="M229.979,191.284c-7.759-13.889-22.274-22.515-37.88-22.515c-15.607,0-30.121,8.627-37.879,22.514
			c-2.694,4.822-0.969,10.913,3.852,13.607c4.822,2.693,10.915,0.968,13.607-3.853c4.228-7.567,12.052-12.268,20.42-12.268
			s16.191,4.701,20.418,12.268c1.832,3.278,5.233,5.125,8.74,5.125c1.65,0,3.324-0.41,4.868-1.271
			C230.946,202.198,232.672,196.105,229.979,191.284z"/>
	</g>
</g>
<g>
	<g>
		<path d="M481.669,81.099c-4.827-5.623-9.461-11.155-13.943-16.504c-18.894-22.552-35.211-42.029-53.482-53.583
			c-21.221-13.42-43.33-14.505-67.587-3.319c-1.488,0.686-4.056,2.098-15.035,9.597C309.688,5.583,284.626,0,256.001,0
			s-53.688,5.583-75.622,17.289c-10.975-7.496-13.544-8.909-15.035-9.597c-24.258-11.186-46.367-10.1-67.588,3.32
			C79.485,22.566,63.168,42.043,44.274,64.596c-4.481,5.349-9.116,10.881-13.942,16.503c-20.559,23.955-28.318,52.157-22.437,81.56
			c6.363,31.813,28.523,62.161,57.338,79.223c-2.955,18.113-5.41,44.41-4.532,70.915c-9.661,18.399-13.232,40.238-10.045,61.546
			c3.241,21.673,13.377,41.904,28.541,56.966c18.514,18.391,43.628,28.733,72.627,29.91c1.895,0.077,3.802,0.115,5.723,0.115
			c12.615,0,25.793-1.659,39.477-4.956c1.82,30.978,27.572,55.625,58.978,55.625c31.343,0,57.052-24.548,58.964-55.439
			c13.688,3.299,26.87,4.958,39.49,4.958c1.918,0,3.83-0.038,5.722-0.115c28.999-1.176,54.113-11.519,72.627-29.91
			c15.164-15.063,25.299-35.293,28.541-56.966c3.188-21.311-0.385-43.153-10.049-61.554c0.012-0.384,0.024-0.763,0.035-1.123
			c0.688-22.801-1.011-48.455-4.562-69.972c28.815-17.061,50.975-47.408,57.338-79.222
			C509.988,133.257,502.229,105.054,481.669,81.099z M256.001,20c43.509,0,75.827,13.874,101.706,43.662
			c30.03,34.565,52.303,91.663,68.083,174.505c0.011,0.07,0.028,0.14,0.04,0.21c0.071,0.376,0.145,0.743,0.216,1.119
			c2.195,11.614,4.346,28.737,5.126,47.594c-8.374-7.526-18.19-13.628-29.223-18.073c-21.682-8.735-47.231-10.951-76.043-6.659
			c-1.571-4.149-4.032-8.034-7.395-11.345c-5.974-5.88-13.88-9.119-22.257-9.119l-80.437-0.064
			c-13.496,0-25.047,8.457-29.661,20.349c-28.838-4.304-54.409-2.092-76.105,6.649c-11.032,4.444-20.848,10.545-29.221,18.071
			c0.778-18.67,2.903-35.651,5.124-47.404c0.068-0.36,0.139-0.71,0.207-1.069c0.018-0.091,0.039-0.183,0.053-0.274
			c15.779-82.835,38.051-139.927,68.079-174.49C180.173,33.874,212.492,20,256.001,20z M304.604,281.926l-40.173,41.042
			c-2.3,2.287-5.305,3.546-8.466,3.546c-3.128,0-6.078-1.249-8.293-3.503l-39.106-39.951c-0.173-0.177-0.353-0.348-0.54-0.512
			c-2.555-2.249-4.02-5.489-4.02-8.889c0.001-6.522,5.299-11.828,11.802-11.828l80.441,0.064c3.099,0,6.022,1.198,8.231,3.372
			C309.103,269.818,309.165,277.285,304.604,281.926z M27.506,158.736c-4.63-23.151,1.595-45.493,18.003-64.61
			c4.904-5.713,9.577-11.291,14.096-16.686c39.377-47.003,59.964-68.833,97.277-51.627c0.347,0.176,1.522,0.839,5.171,3.248
			c-43.398,32.963-72.879,95.036-92.773,191.628C48.415,206.008,32.254,182.472,27.506,158.736z M295.092,452.871
			c0,21.577-17.536,39.131-39.091,39.131s-39.091-17.554-39.091-39.131v-2.319c9.487-3.255,19.19-7.248,29.091-11.967v17.314
			c0,5.523,4.477,10,10,10s10-4.477,10-10v-17.124c9.901,4.719,19.604,8.712,29.091,11.967V452.871z M418.709,417.307
			c-33.546,33.323-90.544,32.242-156.537-2.874c-0.111-0.087-0.227-0.166-0.341-0.248c-0.095-0.068-0.187-0.141-0.284-0.206
			c-0.143-0.095-0.292-0.179-0.439-0.267c-0.135-0.081-0.268-0.165-0.407-0.239c-0.117-0.062-0.238-0.114-0.356-0.172
			c-0.176-0.085-0.35-0.171-0.53-0.246c-0.097-0.04-0.196-0.071-0.294-0.107c-0.205-0.077-0.41-0.155-0.622-0.219
			c-0.099-0.03-0.2-0.05-0.3-0.077c-0.21-0.057-0.419-0.115-0.634-0.158c-0.207-0.042-0.416-0.067-0.625-0.096
			c-0.109-0.015-0.216-0.037-0.327-0.049c-0.666-0.068-1.34-0.068-2.014,0c-0.081,0.008-0.158,0.024-0.238,0.034
			c-0.244,0.03-0.487,0.063-0.729,0.111c-0.16,0.032-0.315,0.077-0.472,0.117c-0.157,0.04-0.315,0.073-0.471,0.121
			c-0.234,0.071-0.462,0.158-0.689,0.246c-0.077,0.03-0.156,0.053-0.233,0.085c-0.325,0.136-0.643,0.286-0.949,0.453
			c-66.583,35.845-124.144,37.16-157.925,3.603c-24.769-24.604-30.976-64.672-14.76-95.274
			c17.672-33.348,56.332-47.578,106.67-39.577c1.612,5.731,4.809,10.958,9.309,15.022l38.884,39.724
			c6.019,6.126,14.035,9.5,22.572,9.5c8.52,0,16.562-3.353,22.645-9.44c0.024-0.024,0.048-0.048,0.072-0.073l40.201-41.07
			c3.832-3.899,6.451-8.545,7.861-13.465c50.363-8.018,89.045,6.208,106.725,39.568
			C449.685,352.634,443.478,392.703,418.709,417.307z M484.495,158.737c-4.748,23.737-20.91,47.273-41.775,61.953
			c-19.894-96.593-49.376-158.666-92.774-191.629c3.637-2.402,4.79-3.055,5.086-3.207c37.396-17.247,57.986,4.582,97.363,51.584
			c4.52,5.395,9.193,10.973,14.097,16.687C482.901,113.243,489.126,135.585,484.495,158.737z"/>
	</g>
</g>
<g>
	<g>
		<path d="M143.251,318.899c-5.508,0-10,4.492-10,10s4.492,10,10,10s10-4.492,10-10
			C153.251,323.392,148.759,318.899,143.251,318.899z"/>
	</g>
</g>
<g>
	<g>
		<path d="M122.251,373.899c-5.508,0-10,4.492-10,10s4.492,10,10,10c5.508,0,10-4.492,10-10
			C132.251,378.392,127.759,373.899,122.251,373.899z"/>
	</g>
</g>
<g>
	<g>
		<path d="M181.751,359.899c-5.508,0-10,4.492-10,10s4.492,10,10,10s10-4.492,10-10
			C191.751,364.392,187.259,359.899,181.751,359.899z"/>
	</g>
</g>
<g>
	<g>
		<path d="M368.751,318.899c-5.508,0-10,4.492-10,10s4.492,10,10,10s10-4.492,10-10
			C378.751,323.392,374.259,318.899,368.751,318.899z"/>
	</g>
</g>
<g>
	<g>
		<path d="M389.751,373.899c-5.508,0-10,4.492-10,10s4.492,10,10,10s10-4.492,10-10
			C399.751,378.392,395.259,373.899,389.751,373.899z"/>
	</g>
</g>
<g>
	<g>
		<path d="M330.251,359.899c-5.508,0-10,4.492-10,10s4.492,10,10,10s10-4.492,10-10
			C340.251,364.392,335.759,359.899,330.251,359.899z"/>
	</g>
</g>
<g>
	<g>
		<path d="M152.905,109.487c-4.92-2.507-10.942-0.55-13.45,4.372c-0.005,0.011-0.089,0.179-0.095,0.19
			c-2.488,4.931-0.508,10.945,4.422,13.433c1.445,0.729,2.982,1.075,4.497,1.075c3.654-0.001,7.176-2.012,8.936-5.497
			c0.006-0.012,0.056-0.111,0.071-0.142C159.778,118.001,157.82,111.991,152.905,109.487z"/>
	</g>
</g>
<g>
	<g>
		<path d="M226.203,48.401c-1.308-5.365-6.714-8.659-12.084-7.348c-23.94,5.834-48.837,31.489-59.731,47.31
			c-3.133,4.548-1.984,10.775,2.565,13.907c1.732,1.193,3.707,1.765,5.663,1.765c3.179,0,6.306-1.513,8.245-4.33
			c11.195-16.259,32.207-35.374,47.994-39.221C224.221,59.176,227.511,53.767,226.203,48.401z"/>
	</g>
</g>
<g>
</g>
<g>
</g>
<g>
</g>
<g>
</g>
<g>
</g>
<g>
</g>
<g>
</g>
<g>
</g>
<g>
</g>
<g>
</g>
<g>
</g>
<g>
</g>
<g>
</g>
<g>
</g>
<g>
</g>
</svg>
