<?xml version="1.0" encoding="iso-8859-1"?>
<!-- Generator: Adobe Illustrator 19.0.0, SVG Export Plug-In . SVG Version: 6.00 Build 0)  -->
<svg version="1.1" id="Capa_1" xmlns="http://www.w3.org/2000/svg" xmlns:xlink="http://www.w3.org/1999/xlink" x="0px" y="0px"
	 viewBox="0 0 512.002 512.002" style="enable-background:new 0 0 512.002 512.002;" xml:space="preserve">
<g>
	<g>
		<path d="M483.191,212.833l-16.698-70.08c-0.022-0.09-0.044-0.181-0.068-0.271c-6.03-22.502-22.586-35.408-45.422-35.408h-55.002
			v-39c0-13.785-11.215-25-25-25h-27.932C308.231,32.985,297.917,26,286.001,26h-60c-11.916,0-22.231,6.984-27.068,17.074h-27.932
			c-13.785,0-25,11.215-25,25v39H90.999c-22.836,0-39.392,12.906-45.422,35.408c-0.024,0.09-0.047,0.18-0.068,0.271l-16.698,70.08
			C12.892,213.028,0,226.054,0,242.046v31.557c0,15.76,12.52,28.638,28.12,29.195l19.684,143.889
			c3.166,23.148,20.928,39.315,43.195,39.315h330.004c22.265,0,40.028-16.167,43.196-39.314l19.684-143.889
			c15.599-0.557,28.119-13.435,28.119-29.195v-31.557C512.002,226.054,499.11,213.028,483.191,212.833z M226.001,46.001h60
			c4.074,0,7.581,2.452,9.138,5.955c-0.041,0.368-0.066,0.74-0.066,1.119c0,1.443,0.311,2.811,0.861,4.049
			c-0.561,4.987-4.799,8.877-9.933,8.877h-60c-5.514,0-10-4.486-10-10.001C216.001,50.487,220.487,46.001,226.001,46.001z
			 M166.001,68.075c0-2.71,2.29-5,5-5h25.85c3.189,13.139,15.045,22.926,29.15,22.926h60c14.105,0,25.961-9.788,29.15-22.926h25.85
			c2.71,0,5,2.29,5,5v39h-180V68.075z M64.93,147.531c3.73-13.764,12.259-20.456,26.069-20.456h65.002h200h65.002
			c13.81,0,22.339,6.692,26.069,20.456l15.558,65.293h-96.628v-16.366c0-5.523-4.477-10-10-10s-10,4.477-10,10v16.366h-80v-16.366
			c0-5.523-4.477-10-10-10s-10,4.477-10,10v16.366h-80v-16.366c0-5.523-4.477-10-10-10s-10,4.477-10,10v16.366H49.373L64.93,147.531
			z M444.383,443.975c-1.5,10.963-9.311,22.026-23.38,22.026H90.999c-14.069,0-21.88-11.062-23.379-22.025L48.31,302.824h415.384
			L444.383,443.975z M492.004,247.824H436.05c-5.523,0-10,4.477-10,10c0,5.523,4.477,10,10,10h55.952v5.778
			c0,5.085-4.113,9.222-9.17,9.222H29.17c-5.057,0-9.17-4.137-9.17-9.222v-5.778h55.952c5.523,0,10-4.477,10-10
			c0-5.523-4.477-10-10-10H20v-5.778c0-5.085,4.113-9.222,9.17-9.222h7.515c0.011,0,0.023,0.002,0.034,0.002
			c0.016,0,0.031-0.002,0.046-0.002H154.7c0.427,0.056,0.859,0.094,1.302,0.094c0.442,0,0.874-0.039,1.302-0.094H254.7
			c0.427,0.056,0.859,0.094,1.302,0.094c0.442,0,0.874-0.039,1.302-0.094H354.7c0.427,0.056,0.859,0.094,1.302,0.094
			c0.442,0,0.874-0.039,1.302-0.094h117.935c0.015,0,0.03,0.002,0.046,0.002c0.011,0,0.022-0.002,0.034-0.002h7.515
			c5.057,0,9.17,4.137,9.17,9.222V247.824z"/>
	</g>
</g>
<g>
	<g>
		<path d="M156.001,334.366c-16.542,0-30,13.458-30,30v40c0,16.542,13.458,30,30,30s30-13.458,30-30v-40
			C186.001,347.824,172.543,334.366,156.001,334.366z M166.001,404.366c0,5.514-4.486,10-10,10c-5.514,0-10-4.486-10-10v-40
			c0-5.514,4.486-10,10-10c5.514,0,10,4.486,10,10V404.366z"/>
	</g>
</g>
<g>
	<g>
		<path d="M356.001,334.366c-16.542,0-30,13.458-30,30v40c0,16.542,13.458,30,30,30s30-13.458,30-30v-40
			C386.001,347.824,372.543,334.366,356.001,334.366z M366.001,404.366c0,5.514-4.486,10-10,10c-5.514,0-10-4.486-10-10v-40
			c0-5.514,4.486-10,10-10c5.514,0,10,4.486,10,10V404.366z"/>
	</g>
</g>
<g>
	<g>
		<path d="M256.001,334.366c-16.542,0-30,13.458-30,30v40c0,16.542,13.458,30,30,30s30-13.458,30-30v-40
			C286.001,347.824,272.543,334.366,256.001,334.366z M266.001,404.366c0,5.514-4.486,10-10,10c-5.514,0-10-4.486-10-10v-40
			c0-5.514,4.486-10,10-10c5.514,0,10,4.486,10,10V404.366z"/>
	</g>
</g>
<g>
	<g>
		<path d="M106,247.824h-0.324c-5.523,0-10,4.477-10,10c0,5.523,4.477,10,10,10H106c5.523,0,10-4.477,10-10
			C116,252.301,111.523,247.824,106,247.824z"/>
	</g>
</g>
<g>
	<g>
		<path d="M406.326,247.824h-0.324c-5.523,0-10,4.477-10,10c0,5.523,4.477,10,10,10h0.324c5.523,0,10-4.477,10-10
			C416.326,252.301,411.849,247.824,406.326,247.824z"/>
	</g>
</g>
<g>
</g>
<g>
</g>
<g>
</g>
<g>
</g>
<g>
</g>
<g>
</g>
<g>
</g>
<g>
</g>
<g>
</g>
<g>
</g>
<g>
</g>
<g>
</g>
<g>
</g>
<g>
</g>
<g>
</g>
</svg>
