<?xml version="1.0" encoding="iso-8859-1"?>
<!-- Generator: Adobe Illustrator 19.0.0, SVG Export Plug-In . SVG Version: 6.00 Build 0)  -->
<svg version="1.1" id="Capa_1" xmlns="http://www.w3.org/2000/svg" xmlns:xlink="http://www.w3.org/1999/xlink" x="0px" y="0px"
	 viewBox="0 0 512.006 512.006" style="enable-background:new 0 0 512.006 512.006;" xml:space="preserve">
<g>
	<g>
		<path d="M508.681,221.516L308.835,21.81C294.77,7.753,276.003,0.013,255.991,0.013c-20.013,0-38.779,7.741-52.845,21.796
			L2.932,221.883c-2.861,2.86-3.719,7.161-2.171,10.899c1.547,3.737,5.194,6.175,9.239,6.175h25.253l44.55,264.696
			c0.009,0.056,0.024,0.108,0.035,0.163c0.03,0.162,0.065,0.322,0.104,0.481c0.036,0.15,0.073,0.3,0.115,0.447
			c0.043,0.151,0.09,0.302,0.141,0.45c0.053,0.157,0.109,0.31,0.169,0.463c0.053,0.132,0.104,0.262,0.162,0.391
			c0.074,0.169,0.156,0.333,0.239,0.497c0.055,0.107,0.108,0.214,0.167,0.319c0.102,0.182,0.211,0.358,0.324,0.532
			c0.053,0.082,0.103,0.166,0.158,0.247c0.135,0.197,0.279,0.387,0.428,0.573c0.043,0.053,0.082,0.109,0.126,0.162
			c0.395,0.475,0.831,0.912,1.304,1.304c0.078,0.065,0.161,0.123,0.241,0.186c0.157,0.123,0.314,0.245,0.479,0.357
			c0.112,0.078,0.229,0.148,0.345,0.221c0.141,0.089,0.281,0.177,0.426,0.259c0.127,0.072,0.258,0.137,0.388,0.203
			c0.144,0.073,0.287,0.144,0.435,0.21c0.132,0.059,0.266,0.115,0.401,0.168c0.157,0.062,0.315,0.12,0.476,0.174
			c0.129,0.044,0.257,0.086,0.388,0.125c0.185,0.054,0.372,0.1,0.56,0.144c0.112,0.025,0.223,0.054,0.336,0.076
			c0.238,0.046,0.48,0.081,0.724,0.11c0.069,0.008,0.137,0.021,0.207,0.028c0.321,0.032,0.646,0.051,0.975,0.051
			c0.012,0,0.023-0.001,0.035-0.001h332.608c0.012,0,0.023,0.001,0.035,0.001c0.328,0,0.652-0.02,0.975-0.051
			c0.07-0.007,0.138-0.02,0.207-0.028c0.243-0.029,0.485-0.064,0.724-0.11c0.113-0.022,0.224-0.051,0.335-0.076
			c0.189-0.044,0.376-0.09,0.561-0.144c0.131-0.039,0.26-0.081,0.389-0.125c0.159-0.054,0.317-0.111,0.474-0.173
			c0.136-0.054,0.271-0.11,0.404-0.169c0.146-0.065,0.288-0.136,0.43-0.207c0.132-0.067,0.264-0.133,0.392-0.206
			c0.144-0.081,0.282-0.168,0.421-0.255c0.117-0.074,0.235-0.145,0.35-0.224c0.161-0.111,0.315-0.231,0.47-0.351
			c0.083-0.065,0.17-0.125,0.251-0.193c0.472-0.392,0.907-0.828,1.302-1.301c0.045-0.055,0.086-0.113,0.13-0.169
			c0.146-0.185,0.29-0.372,0.423-0.566c0.057-0.082,0.107-0.168,0.162-0.251c0.111-0.173,0.22-0.347,0.32-0.528
			c0.06-0.106,0.113-0.215,0.169-0.323c0.083-0.162,0.163-0.326,0.237-0.493c0.059-0.129,0.111-0.261,0.163-0.393
			c0.06-0.152,0.116-0.305,0.169-0.461c0.051-0.149,0.098-0.3,0.141-0.452c0.043-0.147,0.08-0.296,0.115-0.446
			c0.037-0.159,0.074-0.319,0.104-0.481c0.01-0.055,0.025-0.107,0.035-0.163l44.549-264.697h25.253c0.009-0.001,0.013-0.001,0.02,0
			c5.523,0,9.999-4.477,9.999-10C512,226.002,510.719,223.346,508.681,221.516z M145.996,491.993H98.121l-13.464-79.997h61.339
			V491.993z M345.986,491.993H165.995v-89.996c0-49.624,40.372-89.996,89.996-89.996s89.995,40.372,89.995,89.996V491.993z
			 M413.861,491.993h-47.876v-79.997h61.338L413.861,491.993z M453.848,254.396h-57.492c-5.523,0-10,4.477-10,10s4.477,10,10,10
			h54.127l-19.793,117.603h-65.164c-5.068-55.983-52.255-99.996-109.534-99.996c-57.281,0-104.467,44.013-109.536,99.996H81.29
			L61.497,274.395h54.127c5.522,0,10-4.477,10-10s-4.478-10-10-10H58.132l-2.6-15.44h21.888c2.652,0,5.195-1.054,7.071-2.929
			L255.99,64.529l171.499,171.498c1.876,1.875,4.419,2.929,7.071,2.929h21.888L453.848,254.396z M438.702,218.957L263.062,43.317
			c-3.906-3.905-10.236-3.905-14.142,0l-175.64,175.64H34.153l183.129-183c10.289-10.282,24.035-15.943,38.708-15.943
			c14.672,0,28.419,5.662,38.707,15.943l183.13,183.001H438.702z"/>
	</g>
</g>
<g>
	<g>
		<path d="M305.99,157.037c-7.966,0-15.211,3.388-20.588,8.895c0.383-2.068,0.587-4.206,0.587-6.395
			c0-17.919-13.457-32.499-29.999-32.499c-16.54,0-29.998,14.579-29.998,32.499c0,2.189,0.204,4.328,0.587,6.396
			c-5.378-5.507-12.622-8.896-20.588-8.896c-16.541,0-29.999,14.579-29.999,32.499c0,17.92,13.457,32.5,29.999,32.5
			c1.995,0,3.944-0.217,5.832-0.622c-0.539,2.935-0.831,5.962-0.831,9.061c0,26.19,20.185,47.498,44.998,47.498
			c24.813,0,44.998-21.307,44.998-47.498c0-3.099-0.292-6.126-0.831-9.061c1.888,0.405,3.837,0.622,5.833,0.622
			c16.541,0,29.999-14.579,29.999-32.5C335.989,171.616,322.531,157.037,305.99,157.037z M205.991,202.036
			c-5.421,0-10-5.725-10-12.5s4.579-12.499,10-12.499c5.42,0,9.999,5.724,9.999,12.499S211.411,202.036,205.991,202.036z
			 M276.578,183.141c-0.291,1.57-0.478,3.181-0.55,4.823c-1.051-0.554-2.124-1.064-3.219-1.532
			C274.148,185.447,275.405,184.342,276.578,183.141z M255.99,147.036c5.421,0,10,5.724,10,12.499s-4.579,12.499-10,12.499
			c-5.42,0-9.999-5.724-9.999-12.499C245.991,152.761,250.57,147.036,255.99,147.036z M239.172,186.431
			c-1.096,0.468-2.169,0.978-3.22,1.532c-0.072-1.643-0.259-3.254-0.55-4.824C236.575,184.341,237.832,185.445,239.172,186.431z
			 M255.99,257.972c-13.784,0-24.999-12.335-24.999-27.499c0-15.162,11.215-27.499,24.999-27.499
			c13.784,0,24.999,12.336,24.999,27.499C280.989,245.637,269.774,257.972,255.99,257.972z M305.99,202.036
			c-5.421,0-10-5.725-10-12.5s4.579-12.499,10-12.499s10,5.724,10,12.499S311.411,202.036,305.99,202.036z"/>
	</g>
</g>
<g>
	<g>
		<path d="M145.671,254.396h-0.324c-5.523,0-10,4.477-10,10s4.477,10,10,10h0.324c5.522,0,10-4.477,10-10
			S151.193,254.396,145.671,254.396z"/>
	</g>
</g>
<g>
	<g>
		<path d="M366.635,254.396h-0.325c-5.522,0-10,4.477-10,10s4.478,10,10,10h0.325c5.523,0,10-4.477,10-10
			S372.157,254.396,366.635,254.396z"/>
	</g>
</g>
<g>
</g>
<g>
</g>
<g>
</g>
<g>
</g>
<g>
</g>
<g>
</g>
<g>
</g>
<g>
</g>
<g>
</g>
<g>
</g>
<g>
</g>
<g>
</g>
<g>
</g>
<g>
</g>
<g>
</g>
</svg>
